<svg width="71" height="70" viewBox="0 0 71 70" fill="none" xmlns="http://www.w3.org/2000/svg">
<path d="M66.361 47.2023V47.2063C66.365 47.2767 66.373 47.353 66.3851 47.4375C66.5117 48.2635 66.6685 49.1177 66.6605 49.9498C66.6645 50.2332 66.6504 50.5126 66.6122 50.7899C66.2143 53.6037 65.342 56.2427 62.9864 58.126C62.8779 58.2124 62.8075 58.4154 62.7955 58.5963C62.7955 58.6063 62.7975 58.6144 62.7975 58.6244C62.8678 59.1108 62.9 59.5892 62.898 60.0554C62.9362 64.2742 60.1223 67.6347 55.7428 68.3743C55.6363 68.3924 55.5398 68.4507 55.4393 68.4929H39.8286C39.5473 68.4487 39.2659 68.3924 38.9825 68.3582C36.8902 68.107 34.7738 67.9924 32.7137 67.5844C28.7824 66.8026 24.8852 65.868 20.978 64.9676C20.1319 67.3955 17.8246 69.136 15.1092 69.136H7.11595C3.68309 69.136 0.899414 66.3544 0.899414 62.9215V27.0835C0.899414 23.6506 3.68309 20.8669 7.11595 20.8669H15.1092C16.8558 20.8669 18.4356 21.5885 19.5651 22.7522C21.9669 21.6206 24.1577 20.1936 25.8299 18.0451C27.7674 15.5629 28.8467 12.731 29.2849 9.64783C29.4858 8.24292 29.4577 6.80386 29.7009 5.409C30.3963 1.44352 34.5668 -0.833663 38.3052 0.669722C40.4859 1.54603 42.0998 3.11775 43.4183 5.00904C45.4181 7.87713 46.4773 11.0728 46.4612 14.57C46.4492 16.8733 46.2623 19.1746 46.1497 21.5704C46.2964 21.5825 46.614 21.6267 46.9335 21.6347C48.8389 21.687 50.7463 21.7292 52.6516 21.7754C52.6516 21.7312 52.6496 21.687 52.6496 21.6427C54.5892 21.691 56.5287 21.7453 58.4682 21.8256C60.2389 21.898 62.0277 22.0347 63.7642 22.3663C67.0222 22.9874 69.5366 25.552 70.0089 28.7798C70.0993 29.3928 70.1456 30.0038 70.1416 30.6068C70.1496 32.4076 69.7014 34.1442 68.5236 35.6978C68.4533 35.7923 68.407 35.943 68.395 36.0897C68.399 36.148 68.4111 36.2023 68.4291 36.2485C68.9457 37.5248 69.1808 38.7508 69.1708 39.9326C69.1889 42.2841 68.2442 44.4649 66.6424 46.523C66.4554 46.7682 66.371 46.9611 66.361 47.2023Z" fill="#E698A2"/>
<path d="M64.5187 45.3071C64.2574 45.6428 64.2091 45.8799 64.2734 46.304C64.4302 47.319 64.6312 48.3822 64.4885 49.3811C64.1086 52.0723 63.2745 54.5947 61.0215 56.3936C60.8848 56.5041 60.8145 56.8016 60.8406 56.9945C61.4978 61.5971 58.7061 65.4078 54.0955 66.1857C53.995 66.2017 53.9005 66.26 53.804 66.3002H38.8827C38.6134 66.256 38.3441 66.2038 38.0748 66.1716C36.077 65.9304 34.051 65.8219 32.0833 65.43C28.3028 64.6783 24.5523 63.7778 20.7959 62.9136C20.3718 62.8171 20.1668 62.8774 19.9437 63.2653C19.188 64.5858 18.0705 65.4963 16.6314 65.9987C16.3159 66.1093 15.9923 66.1977 15.6727 66.2982H7.76387C7.64931 66.254 7.53675 66.1957 7.41616 66.1676C5.00231 65.5867 3.45269 64.1014 2.73517 61.7298C2.66884 61.5107 2.60252 61.2896 2.53418 61.0685V26.6394C2.58242 26.5027 2.64472 26.3701 2.67487 26.2294C3.312 23.4136 5.74797 21.4399 8.64017 21.4218C10.6179 21.4097 12.5936 21.4379 14.5713 21.4137C15.9903 21.3977 17.2284 21.872 18.38 22.6558C18.5569 22.7744 18.8684 22.8749 19.0332 22.8006C21.5174 21.6831 23.7906 20.2762 25.501 18.0834C27.3521 15.7117 28.3852 13.0044 28.8052 10.056C28.9962 8.71537 28.97 7.3366 29.2032 6.00405C29.8685 2.21343 33.854 0.0387489 37.4276 1.4738C39.5118 2.31191 41.0534 3.8153 42.3136 5.62218C44.225 8.36364 45.2379 11.4186 45.2219 14.7611C45.2118 16.9619 45.0329 19.1627 44.9264 21.4539C45.0671 21.466 45.3706 21.5082 45.6761 21.5162C49.3522 21.6167 53.0282 21.675 56.7023 21.8258C58.3946 21.8961 60.105 22.0268 61.7631 22.3423C64.8784 22.9372 67.2822 25.3873 67.7324 28.4724C68.0681 30.7677 67.7887 33.0107 66.3135 34.9603C66.1969 35.1171 66.1507 35.4326 66.223 35.6135C67.6822 39.2051 66.7938 42.3848 64.5187 45.3071Z" fill="#FAD6C3"/>
<path opacity="0.05" d="M64.5187 45.1803C64.2574 45.516 64.2092 45.7531 64.2735 46.1772C64.4302 47.1922 64.6312 48.2554 64.4885 49.2543C64.1087 51.9455 63.2746 54.4679 61.0215 56.2668C60.8848 56.3773 60.8145 56.6748 60.8406 56.8677C61.4978 61.4703 58.7061 65.281 54.0955 66.0589C53.995 66.0749 53.9005 66.1332 53.804 66.1734H38.8827C38.6134 66.1292 38.3441 66.077 38.0748 66.0448C36.077 65.8036 34.051 65.6951 32.0833 65.3032C28.3028 64.5515 24.5523 63.651 20.7959 62.7868C20.3718 62.6903 20.1668 62.7506 19.9437 63.1385C19.188 64.459 18.0705 65.3695 16.6314 65.872C16.3159 65.9825 15.9923 66.0709 15.6727 66.1714H7.76387C7.64931 66.1272 7.53676 66.0689 7.41616 66.0408C5.00231 65.4599 3.45269 63.9746 2.73517 61.603C2.66884 61.3839 2.60252 61.1628 2.53418 60.9417V59.2776C7.78799 58.7731 15.9903 57.4285 28.2565 54.1484C49.5491 48.4564 51.2535 28.7154 51.143 21.5181C52.9961 21.5663 54.8512 21.6166 56.7043 21.6929C58.3966 21.7633 60.107 21.8939 61.7652 22.2095C64.8805 22.8044 67.2843 25.2544 67.7345 28.3396C68.0701 30.6349 67.7908 32.8779 66.3155 34.8275C66.1989 34.9842 66.1527 35.2998 66.2271 35.4807C67.6822 39.0783 66.7939 42.2579 64.5187 45.1803Z" fill="#FAD6C3"/>
<path d="M64.5696 45.3471C64.4892 45.4516 64.4188 45.5602 64.3726 45.6767C64.3264 45.7933 64.3083 45.9199 64.3143 46.0486C64.3163 46.1772 64.3404 46.3078 64.3625 46.4405L64.4248 46.8405C64.5072 47.3731 64.5856 47.9097 64.6017 48.4544C64.6098 48.7257 64.6037 48.9991 64.5736 49.2724C64.5595 49.4091 64.5374 49.5417 64.5173 49.6764C64.4972 49.811 64.4771 49.9437 64.453 50.0763C64.3645 50.609 64.25 51.1396 64.1033 51.6621C63.9565 52.1847 63.7877 52.7012 63.5686 53.1997C63.3496 53.6981 63.0923 54.1785 62.7908 54.6347C62.4934 55.093 62.1396 55.5131 61.7557 55.903C61.6572 55.9974 61.5648 56.0979 61.4603 56.1884L61.1508 56.4577L61.1126 56.4919C61.0985 56.5039 61.0985 56.5059 61.0905 56.514C61.0764 56.528 61.0643 56.5481 61.0523 56.5703C61.0282 56.6165 61.0101 56.6707 60.996 56.727C60.9819 56.7833 60.9759 56.8416 60.9759 56.8979C60.9759 56.926 60.9779 56.9521 60.9819 56.9783L60.996 57.0787C61.1568 58.1601 61.1347 59.2755 60.8875 60.3528C60.6423 61.4281 60.1699 62.4572 59.5027 63.3455C58.8354 64.2359 57.9711 64.9775 56.9963 65.5202C56.51 65.7915 55.9954 66.0167 55.4648 66.1915L55.0649 66.3141C54.9302 66.3523 54.7955 66.3845 54.6609 66.4206C54.5262 66.4548 54.3875 66.4789 54.2509 66.5091L54.1564 66.5292C54.1524 66.5312 54.1403 66.5352 54.1222 66.5412C54.0861 66.5573 54.0278 66.5895 53.9413 66.6256L53.8851 66.6498L53.8107 66.6518L46.3501 66.7724C45.1059 66.7925 43.8638 66.8005 42.6197 66.8166L38.8894 66.8528H38.8492L38.801 66.8447L38.0553 66.7302C37.8021 66.698 37.5468 66.6739 37.2915 66.6457L35.75 66.497C34.7169 66.3965 33.6738 66.29 32.6307 66.1151C32.3714 66.0709 32.1061 66.0207 31.8508 65.9684L31.0871 65.8137L29.5636 65.4921C28.5486 65.273 27.5356 65.0479 26.5267 64.8168L23.5018 64.1012L21.9924 63.7415L21.2387 63.5626L20.8608 63.4722L20.6759 63.4279C20.6277 63.4179 20.5795 63.4078 20.5473 63.4038C20.5131 63.3998 20.491 63.3998 20.487 63.3998C20.483 63.3998 20.4991 63.3958 20.5011 63.3918C20.5051 63.3897 20.495 63.3918 20.477 63.4119C20.4589 63.434 20.4347 63.4621 20.4126 63.5023L20.3101 63.6691C20.274 63.7274 20.2378 63.7877 20.1976 63.846C20.1212 63.9626 20.0408 64.0771 19.9564 64.1897C19.7876 64.4128 19.6067 64.6278 19.4077 64.8268C19.2127 65.0278 19.0017 65.2147 18.7786 65.3876C18.3364 65.7333 17.848 66.0146 17.3395 66.2357C16.821 66.4608 16.3185 66.5794 15.814 66.7362L15.7457 66.7583H15.6794L7.77053 66.6498H7.69818L7.64592 66.6277L7.42283 66.5312C7.39268 66.5191 7.36856 66.5111 7.34645 66.5051L7.22586 66.4709C7.06306 66.4226 6.89624 66.3824 6.73545 66.3222C6.57466 66.2659 6.41186 66.2116 6.25509 66.1413L6.01792 66.0408L5.78679 65.9262C5.47727 65.7775 5.18584 65.5926 4.90445 65.3956C4.6291 65.1886 4.36179 64.9695 4.12462 64.7183C3.64627 64.2238 3.25033 63.651 2.9609 63.036C2.81619 62.7285 2.68756 62.415 2.58506 62.0934C2.47653 61.7678 2.39412 61.4603 2.29966 61.1467L2.2876 61.1085V61.0724C2.30971 58.2043 2.33784 55.3342 2.33784 52.4641L2.34588 48.1609L2.33784 43.8578L2.31774 39.5547L2.28961 35.2515L2.20117 26.6432V26.589L2.22127 26.5307C2.25745 26.4262 2.29363 26.3377 2.31774 26.2634C2.3298 26.2252 2.33784 26.193 2.34588 26.1589L2.38407 26.0101C2.43633 25.8132 2.47853 25.6122 2.5529 25.4232L2.65339 25.1358C2.68756 25.0394 2.73379 24.9489 2.77399 24.8545L2.90061 24.5751L3.04934 24.3078C3.4493 23.5963 3.97991 22.9511 4.62106 22.4386C5.2602 21.9241 5.99984 21.5301 6.7857 21.2869C7.17762 21.1603 7.58562 21.0839 7.99363 21.0317C8.19864 21.0076 8.40565 21.0035 8.61066 20.9895L9.19151 20.9794L13.8182 20.9231C14.2061 20.9231 14.576 20.9071 15.0081 20.9211C15.4261 20.9412 15.8442 20.9995 16.2502 21.1C17.0642 21.303 17.8299 21.6567 18.5133 22.0989C18.5917 22.1492 18.7083 22.2275 18.7183 22.2296C18.7585 22.2517 18.8148 22.2718 18.857 22.2798C18.8771 22.2838 18.8952 22.2858 18.8992 22.2858C18.9032 22.2858 18.8932 22.2818 18.8429 22.2979C18.8369 22.2999 18.8289 22.3019 18.8228 22.3059C18.8148 22.3099 18.8309 22.3019 18.8329 22.3019L18.865 22.2878L18.9293 22.2577L19.058 22.1974C19.4017 22.0386 19.7393 21.8698 20.073 21.6969C20.7423 21.3492 21.3874 20.9674 22.0024 20.5473C22.6175 20.1252 23.2003 19.665 23.739 19.1605C24.2756 18.652 24.764 18.1033 25.2042 17.5084C26.0925 16.3185 26.798 14.998 27.3045 13.6012C27.5597 12.9037 27.7607 12.1862 27.9215 11.4566C27.9999 11.0929 28.0703 10.725 28.1285 10.3572C28.1888 9.98541 28.2351 9.62564 28.2672 9.25181C28.3335 8.50614 28.3617 7.73435 28.436 6.94045C28.4762 6.54049 28.5205 6.14655 28.6049 5.73051C28.6853 5.31245 28.8059 4.90043 28.9687 4.50449C29.6058 2.91066 30.9002 1.60022 32.4739 0.918874C33.2597 0.579205 34.1099 0.376208 34.9681 0.358119C35.8264 0.334001 36.6886 0.474693 37.4905 0.772154C39.0602 1.35502 40.431 2.35191 41.5344 3.54779C42.0851 4.14472 42.5835 4.78185 43.0277 5.44712C43.4779 6.10837 43.8819 6.80378 44.2377 7.52533C44.9492 8.96641 45.4456 10.52 45.6928 12.1119C45.8174 12.9078 45.8797 13.7117 45.8858 14.5137C45.8918 15.3096 45.8617 16.0814 45.8295 16.8612C45.7612 18.4148 45.6386 19.9544 45.5561 21.4859L44.9974 20.8448L45.3391 20.8829C45.4456 20.893 45.5481 20.903 45.6486 20.9071L46.3259 20.9312L47.6967 20.9814L50.4401 21.09C52.2691 21.1683 54.0961 21.2347 55.9231 21.3211C57.7501 21.3995 59.6032 21.5442 61.4301 21.8879C61.6572 21.9301 61.8844 21.9763 62.1195 22.0386C62.2361 22.0688 62.3527 22.0949 62.4672 22.1271L62.8089 22.2396C63.038 22.3079 63.2571 22.4104 63.4782 22.5009C63.5907 22.5431 63.6953 22.6014 63.8018 22.6556L64.1214 22.8184C64.9534 23.2908 65.6951 23.9098 66.3041 24.6394C66.9151 25.369 67.3693 26.2192 67.6648 27.1176L67.721 27.2864L67.7653 27.4572L67.8517 27.8009C67.8979 28.0321 67.9361 28.2652 67.9723 28.4963C68.0326 28.9566 68.0627 29.4229 68.0708 29.8872C68.0848 30.8177 67.9642 31.7564 67.6849 32.6487C67.5422 33.0929 67.3593 33.525 67.1442 33.9371L66.9734 34.2426C66.9151 34.3431 66.8487 34.4395 66.7885 34.538C66.7282 34.6365 66.6598 34.733 66.5915 34.8254L66.489 34.9661L66.4387 35.0365C66.4247 35.0546 66.4166 35.0686 66.4046 35.0887C66.3644 35.1671 66.3382 35.2696 66.3322 35.3661C66.3302 35.4143 66.3302 35.4626 66.3382 35.5068C66.3423 35.5289 66.3483 35.549 66.3543 35.5671L66.3825 35.6475C66.4588 35.8665 66.5412 36.0816 66.6116 36.3027C66.6719 36.5258 66.7402 36.7469 66.7945 36.972C66.8387 37.1991 66.893 37.4242 66.9291 37.6533C67.0739 38.5678 67.0678 39.5024 66.9171 40.4129C66.7663 41.3233 66.4608 42.2037 66.0569 43.0297C65.6408 43.8518 65.1343 44.6236 64.5696 45.3471ZM64.4691 45.2687C65.0258 44.5492 65.5242 43.7814 65.9202 42.9634C66.3181 42.1474 66.6015 41.2751 66.7422 40.3807C66.8849 39.4863 66.8709 38.5718 66.7141 37.6815C66.6759 37.4584 66.6176 37.2393 66.5714 37.0202C66.5131 36.8011 66.4428 36.5861 66.3804 36.371C66.3081 36.158 66.2217 35.9469 66.1453 35.7359L66.1151 35.6555C66.1011 35.6213 66.091 35.5852 66.085 35.551C66.0709 35.4827 66.0689 35.4163 66.0709 35.35C66.077 35.2194 66.1031 35.0927 66.1634 34.9661C66.1795 34.936 66.1996 34.9018 66.2197 34.8737L66.2679 34.8053L66.3644 34.6666C66.4307 34.5762 66.493 34.4817 66.5493 34.3853C66.6076 34.2888 66.6699 34.1963 66.7221 34.0979L66.8809 33.8024C67.0799 33.4004 67.2407 32.9824 67.3653 32.5523C67.6085 31.69 67.6969 30.7896 67.6587 29.8932C67.6386 29.445 67.5964 28.9988 67.5261 28.5546C67.4859 28.3356 67.4437 28.1185 67.3914 27.9034L67.299 27.5859L67.2527 27.4271L67.1945 27.2723C66.8889 26.4443 66.4387 25.6705 65.8519 25.0173C65.265 24.364 64.5635 23.8194 63.7897 23.4154L63.4923 23.2767C63.3938 23.2305 63.2973 23.1802 63.1928 23.1461C62.9878 23.0717 62.7888 22.9833 62.5758 22.931L62.2622 22.8385C62.1557 22.8144 62.0492 22.7923 61.9427 22.7702C61.7336 22.722 61.5105 22.6858 61.2874 22.6516C60.3991 22.515 59.5007 22.4285 58.5982 22.3743C57.6938 22.32 56.7913 22.2919 55.8748 22.2878C54.0479 22.2718 52.2209 22.2356 50.3939 22.2115L47.6545 22.1652L46.2837 22.1371L45.5903 22.123C45.4617 22.119 45.3371 22.111 45.2145 22.0989L44.8748 22.0668L44.2939 22.0105L44.3161 21.4236C44.3764 19.872 44.4688 18.3324 44.5311 16.8029C44.5572 16.0412 44.5814 15.2694 44.5713 14.5237C44.5613 13.7841 44.4969 13.0464 44.3784 12.3169C44.1432 10.8597 43.6769 9.44476 43.0137 8.12226C42.684 7.46101 42.3042 6.82388 41.8881 6.20886C41.4761 5.59183 41.0199 5.00897 40.5254 4.47233C40.2762 4.20502 40.0169 3.95177 39.7476 3.71059C39.4743 3.47342 39.1949 3.24631 38.8994 3.04331C38.604 2.84031 38.3025 2.64736 37.985 2.48457C37.8282 2.39814 37.6654 2.32578 37.5046 2.2474C37.3398 2.17906 37.175 2.10068 37.0142 2.04641C35.7259 1.56203 34.2647 1.60625 33.0025 2.14892C31.7383 2.68555 30.6951 3.72466 30.1746 4.99691C30.0399 5.31246 29.9414 5.64408 29.8731 5.98174C29.8008 6.32141 29.7545 6.69525 29.7163 7.06306C29.64 7.8047 29.6058 8.57649 29.5294 9.36637C29.4912 9.76031 29.435 10.1663 29.3686 10.5562C29.3043 10.9481 29.2259 11.3401 29.1375 11.728C28.9586 12.5058 28.7335 13.2736 28.4521 14.0232C27.8914 15.5226 27.1136 16.9436 26.1448 18.2178C25.6604 18.857 25.1157 19.462 24.5248 20.0066C23.9319 20.5513 23.2948 21.0417 22.6315 21.4839C21.9683 21.9261 21.2769 22.322 20.5734 22.6757C20.2217 22.8526 19.8659 23.0235 19.5082 23.1842L19.3735 23.2445L19.3072 23.2747L19.273 23.2908L19.2489 23.3008L19.1947 23.3209C19.052 23.3692 18.9454 23.3692 18.853 23.3671C18.7605 23.3631 18.6821 23.3491 18.6098 23.333C18.4631 23.2968 18.3384 23.2486 18.2078 23.1802C18.049 23.0898 18.0088 23.0536 17.9264 22.9993C17.3215 22.5974 16.6723 22.2838 15.9909 22.1009C15.6512 22.0105 15.3015 21.9542 14.9498 21.9321C14.6101 21.912 14.2102 21.918 13.8263 21.914L9.19553 21.8718L8.6187 21.8678C8.43982 21.8778 8.25893 21.8758 8.08005 21.8919C7.72229 21.9301 7.36655 21.9884 7.02286 22.0889C6.33146 22.2858 5.67825 22.6134 5.10343 23.0516C4.52861 23.4877 4.04825 24.0465 3.67642 24.6695L3.53774 24.9047L3.42117 25.1499C3.38298 25.2323 3.33876 25.3127 3.3066 25.3971L3.21013 25.6524C3.13777 25.8212 3.09959 25.9981 3.04733 26.1729L3.00914 26.3036C2.99507 26.3639 2.97698 26.4242 2.9589 26.4784C2.92071 26.585 2.88252 26.6754 2.85237 26.7538L2.87247 26.6412L2.78404 35.2495L2.7559 39.5527L2.7358 43.8558L2.72776 48.1589L2.7358 52.4621C2.73781 55.3322 2.76394 58.2003 2.78605 61.0704L2.776 60.996C2.97095 61.6291 3.15586 62.2321 3.44528 62.7908C3.72667 63.3536 4.09849 63.8621 4.53866 64.2962C4.75773 64.5173 5.00093 64.7082 5.25216 64.8891C5.51144 65.06 5.77674 65.2207 6.06013 65.3494L6.27117 65.4479L6.48823 65.5323C6.63294 65.5926 6.78167 65.6388 6.9304 65.685C7.07712 65.7373 7.23188 65.7694 7.38263 65.8096L7.49719 65.8398C7.55347 65.8539 7.60773 65.8699 7.65396 65.888C7.74842 65.9222 7.8248 65.9584 7.88509 65.9805L7.76048 65.9564L15.6693 65.8478L15.5347 65.8679C16.015 65.7051 16.5195 65.5685 16.9456 65.3695C17.3817 65.1685 17.7918 64.9213 18.1576 64.6198C18.3405 64.4711 18.5153 64.3103 18.6761 64.1354C18.8389 63.9646 18.9896 63.7797 19.1263 63.5867C19.1967 63.4902 19.261 63.3918 19.3253 63.2913C19.3595 63.243 19.3876 63.1888 19.4177 63.1385L19.5162 62.9717C19.5564 62.9014 19.6087 62.823 19.673 62.7446C19.7373 62.6662 19.8258 62.5798 19.9383 62.5094C20.0509 62.4371 20.1895 62.3868 20.3142 62.3667C20.4388 62.3466 20.5453 62.3506 20.6418 62.3587C20.7362 62.3667 20.8166 62.3828 20.895 62.3989L21.088 62.4411L21.4678 62.5255L22.2255 62.6963L23.741 63.036L26.7699 63.7113C27.7788 63.9384 28.7858 64.1615 29.7967 64.3746L31.3122 64.6901L32.0699 64.8429C32.3231 64.8931 32.5663 64.9394 32.8176 64.9796C33.8145 65.1504 34.8315 65.2629 35.8585 65.3675C36.373 65.4197 36.8876 65.474 37.4061 65.5323C37.6654 65.5624 37.9247 65.5906 38.1839 65.6267L38.9718 65.7574L38.8854 65.7514L42.6157 65.7875C43.8598 65.8016 45.1019 65.8096 46.346 65.8317L53.8067 65.9523L53.674 65.9785C53.7142 65.9644 53.7745 65.9322 53.863 65.8981C53.9072 65.882 53.9594 65.8639 54.0217 65.8518L54.1263 65.8338C54.2549 65.8096 54.3835 65.7915 54.5101 65.7654C54.6368 65.7373 54.7654 65.7112 54.89 65.681L55.2659 65.5785C55.7643 65.4318 56.2507 65.2408 56.713 65.0037C57.6375 64.5293 58.4676 63.8661 59.1228 63.0521C59.78 62.2401 60.2564 61.2814 60.5197 60.2604C60.785 59.2414 60.8392 58.1661 60.7126 57.1109L60.7026 57.0104C60.6985 56.9682 60.6965 56.928 60.6985 56.8878C60.7006 56.8094 60.7126 56.7331 60.7327 56.6587C60.7528 56.5843 60.7769 56.51 60.8191 56.4376C60.8412 56.4014 60.8633 56.3652 60.8975 56.3311C60.9116 56.315 60.9377 56.2929 60.9478 56.2848L60.986 56.2527L61.2915 55.9974C61.394 55.913 61.4864 55.8165 61.5829 55.7261C61.9627 55.3563 62.3165 54.9543 62.616 54.5141C62.9154 54.074 63.1767 53.6077 63.3978 53.1213C63.6209 52.6349 63.7957 52.1284 63.9465 51.6159C64.0952 51.1014 64.2138 50.5768 64.3063 50.0482C64.3324 49.9156 64.3525 49.7829 64.3726 49.6503C64.3927 49.5176 64.4168 49.3849 64.4309 49.2523C64.463 48.989 64.4711 48.7217 64.463 48.4544C64.4469 47.9198 64.3726 47.3871 64.2902 46.8565L64.2279 46.4566C64.2078 46.3239 64.1837 46.1893 64.1796 46.0465C64.1736 45.9059 64.1957 45.7591 64.248 45.6245C64.3042 45.4958 64.3846 45.3773 64.4691 45.2687Z" fill="#ECC8BB"/>
<path d="M21.1987 26.7217V60.974C21.1987 64.2541 18.5397 66.9151 15.2575 66.9151H7.61599C4.33588 66.9151 1.6748 64.2561 1.6748 60.974V26.7217C1.6748 23.4416 4.33387 20.7805 7.61599 20.7805H15.2575C18.5376 20.7805 21.1987 23.4416 21.1987 26.7217Z" fill="#25254F"/>
<path opacity="0.05" d="M19.7737 28.8198V55.0687C19.7737 57.8022 17.9266 60.1055 15.4123 60.7969V34.7208C15.4123 31.4407 12.7532 28.7796 9.47109 28.7796H5.53777C4.99108 28.7796 4.46048 28.854 3.95801 28.9926V28.8218C3.95801 25.5417 6.61707 22.8806 9.89919 22.8806H13.8325C17.1146 22.8806 19.7737 25.5397 19.7737 28.8198Z" fill="white"/>
<path d="M29.9434 14.0956C30.9523 13.4986 31.8749 12.8655 32.6326 12.1339C33.3903 11.4043 33.9531 10.5783 34.2304 9.65575L34.2827 9.48291C34.3008 9.42462 34.3108 9.36432 34.3249 9.30604C34.337 9.24574 34.353 9.18745 34.3651 9.12917C34.3751 9.06887 34.3832 9.00858 34.3932 8.94828C34.4173 8.83774 34.4334 8.68298 34.4535 8.5463C34.4716 8.40561 34.4897 8.26492 34.5138 8.12423C34.5942 7.56147 34.6826 7.00071 34.7791 6.43795C34.9721 5.31242 35.1952 4.19493 35.4585 3.04729L35.5469 3.04126C35.6172 4.19292 35.565 5.34257 35.4906 6.48819C35.4544 7.06101 35.4062 7.63382 35.3539 8.20463C35.3238 8.49003 35.3037 8.77543 35.2655 9.06284L35.2354 9.27991C35.2233 9.35226 35.2072 9.42261 35.1932 9.49497C35.1771 9.56531 35.165 9.63767 35.1449 9.70801L35.0846 9.91905C34.9178 10.4798 34.6384 11.0024 34.2968 11.4707C34.1219 11.7038 33.935 11.9269 33.7259 12.1299C33.523 12.3369 33.3019 12.5259 33.0727 12.7027C32.1522 13.4082 31.085 13.9026 29.9635 14.184L29.9434 14.0956Z" fill="#ECC8BB"/>
<path d="M64.5087 35.3981C63.8977 35.7921 63.2666 36.0332 62.6295 36.2242C61.9904 36.4091 61.3432 36.5337 60.69 36.602C60.0368 36.6704 59.3755 36.6824 58.7082 36.6302C58.043 36.5679 57.3616 36.4614 56.6943 36.1559V36.0674C57.0199 36.0554 57.3455 36.0332 57.6691 36.0031C57.9947 35.979 58.3203 35.9488 58.6459 35.9187C59.2971 35.8564 59.9463 35.786 60.5955 35.7137L62.5471 35.5127L63.5219 35.4062L64.4987 35.3097L64.5087 35.3981Z" fill="#ECC8BB"/>
<path d="M62.9362 45.7108C62.3312 46.1269 61.7001 46.3841 61.059 46.5952C60.4178 46.7982 59.7666 46.9389 59.1054 47.0213C58.4441 47.1037 57.7769 47.1298 57.1015 47.0856C56.4262 47.0353 55.7409 46.9308 55.0655 46.6454L55.0615 46.557C55.3911 46.5329 55.7188 46.5067 56.0464 46.4726C56.374 46.4424 56.7036 46.4123 57.0312 46.3761C57.6864 46.3057 58.3416 46.2233 58.9949 46.1369C59.6501 46.0605 60.3053 45.9761 60.9585 45.8897L61.9393 45.755L62.9221 45.6284L62.9362 45.7108Z" fill="#ECC8BB"/>
<path d="M59.0027 56.6888C58.5565 57.0546 58.0942 57.2696 57.6279 57.4385C57.1616 57.6013 56.6893 57.7078 56.2109 57.7621C55.7326 57.8163 55.2502 57.8224 54.7598 57.7721C54.2674 57.7158 53.775 57.6153 53.2504 57.3782L53.2363 57.2897C53.4735 57.2455 53.7127 57.2033 53.9518 57.1651L54.6694 57.0646L56.1064 56.8757L57.5475 56.727L58.2691 56.6566L58.9926 56.6003L59.0027 56.6888Z" fill="#ECC8BB"/>
<path opacity="0.03" d="M64.5187 45.1803C64.2574 45.516 64.2092 45.7531 64.2735 46.1772C64.4302 47.1922 64.6312 48.2554 64.4885 49.2543C64.1087 51.9455 63.2746 54.4679 61.0215 56.2668C60.8848 56.3773 60.8145 56.6748 60.8406 56.8677C61.4978 61.4703 58.7061 65.281 54.0955 66.0589C53.995 66.0749 53.9005 66.1332 53.804 66.1734H38.8827C38.6134 66.1292 38.3441 66.077 38.0748 66.0448C36.077 65.8036 34.051 65.6951 32.0833 65.3032C28.3028 64.5515 24.5523 63.651 20.7959 62.7868C20.3718 62.6903 20.1668 62.7506 19.9437 63.1385C19.188 64.459 18.0705 65.3695 16.6314 65.872C16.3159 65.9825 15.9923 66.0709 15.6727 66.1714H7.76387C7.64931 66.1272 7.53676 66.0689 7.41616 66.0408C5.00231 65.4599 3.45269 63.9746 2.73517 61.603C2.66884 61.3839 2.60252 61.1628 2.53418 60.9417V59.2776C7.78799 58.7731 15.9903 57.4285 28.2565 54.1484C49.5491 48.4564 51.2535 28.7154 51.143 21.5181C52.9961 21.5663 54.8512 21.6166 56.7043 21.6929C58.3966 21.7633 60.107 21.8939 61.7652 22.2095C64.8805 22.8044 67.2843 25.2544 67.7345 28.3396C68.0701 30.6349 67.7908 32.8779 66.3155 34.8275C66.1989 34.9842 66.1527 35.2998 66.2271 35.4807C67.6822 39.0783 66.7939 42.2579 64.5187 45.1803Z" fill="#202020"/>
</svg>
