<svg width="64" height="54" viewBox="0 0 64 54" fill="none" xmlns="http://www.w3.org/2000/svg">
<path d="M62.7703 9.26863V34.9535C62.7703 39.6286 58.959 43.4716 54.2522 43.4716H9.83338C9.54427 43.4716 9.25693 43.4716 8.96782 43.4399L1.31348 52.9188V9.26863C1.31348 4.56179 5.12478 0.750489 9.83162 0.750489H54.2504C58.959 0.748726 62.7703 4.56003 62.7703 9.26863Z" fill="white"/>
<path d="M62.8236 9.26863L62.8359 14.5396L62.8747 19.8105L63.021 30.3524L63.0598 32.9879L63.0792 34.3065L63.088 34.9658L63.0633 35.6498C62.9946 36.5577 62.8113 37.4656 62.4693 38.3188C62.1237 39.1685 61.6583 39.9706 61.0766 40.6846C60.4931 41.3985 59.788 42.0049 59.0176 42.5126C58.8201 42.6308 58.6298 42.7647 58.4253 42.8705L57.8047 43.179C57.595 43.2742 57.3746 43.3465 57.1595 43.4311C56.9462 43.521 56.7188 43.5739 56.4967 43.6321C56.0524 43.7678 55.5906 43.8189 55.134 43.8894C54.6721 43.9159 54.2014 43.9476 53.7731 43.9406L51.1376 43.9511L45.8666 43.9458L40.5957 43.9176L30.0538 43.8031L19.5119 43.6832L14.2409 43.6479L11.6055 43.6409L10.2868 43.6373C9.84789 43.6321 9.40894 43.6514 8.95236 43.6003L9.09338 43.5421L5.27327 48.286L1.47254 53.0475L1.11468 53.4953L1.10939 52.9188C1.0283 43.35 0.89961 33.7812 0.848487 24.2124L0.785024 9.85918C0.785024 9.55773 0.77621 9.26862 0.797364 8.94426C0.811467 8.62694 0.818519 8.30963 0.876694 7.99584L0.947208 7.52339C0.970126 7.3665 1.01948 7.21489 1.0565 7.05976L1.17462 6.59789C1.22398 6.44629 1.28039 6.29821 1.33328 6.14837C1.76518 4.95138 2.45622 3.84959 3.33941 2.93291C4.21908 2.00917 5.31205 1.29521 6.49669 0.828052C6.79814 0.724044 7.09078 0.591829 7.4028 0.52484C7.7113 0.447274 8.01804 0.355605 8.33536 0.320348L8.8078 0.248073C8.9647 0.22163 9.12512 0.225155 9.28377 0.214578L9.76151 0.19166C9.9184 0.184608 10.063 0.189896 10.2146 0.188133C19.7834 0.196948 29.3522 0.207525 38.921 0.367946L53.2742 0.588303L54.1715 0.600645C54.4729 0.612985 54.7779 0.637664 55.0811 0.655293C55.3826 0.694076 55.6805 0.752249 55.9802 0.799846C56.2728 0.879175 56.5672 0.953216 56.8581 1.03783C58.011 1.41685 59.0775 2.0409 59.9695 2.85358C60.8615 3.66626 61.5896 4.65875 62.0797 5.75877C62.575 6.8588 62.8289 8.06459 62.8236 9.26863ZM62.7178 9.26863C62.7143 8.0787 62.4552 6.89229 61.9633 5.81342C61.4715 4.73279 60.754 3.75792 59.8602 2.97874C58.9717 2.19779 57.9193 1.60547 56.7911 1.25643C56.5073 1.17886 56.2199 1.11011 55.9326 1.04312C55.6399 1.0061 55.3491 0.958505 55.0564 0.928537C54.762 0.919722 54.4694 0.903856 54.1732 0.90033L53.2759 0.912669L38.9227 1.13303C29.3539 1.29345 19.7851 1.30402 10.2163 1.31284C10.0682 1.3146 9.91311 1.30931 9.77209 1.31637L9.35429 1.33752C9.21502 1.3481 9.07399 1.34281 8.93649 1.36573L8.52222 1.42919C8.24369 1.45739 7.97573 1.54025 7.70425 1.60724C7.42925 1.66365 7.17539 1.78176 6.91096 1.87166C5.87264 2.27889 4.91717 2.9047 4.13622 3.7068C3.35351 4.50538 2.74004 5.46966 2.35221 6.51856C2.30461 6.65078 2.25349 6.77947 2.20765 6.91345L2.10188 7.32067C2.07015 7.45641 2.02255 7.59038 2.0014 7.72789L1.93617 8.14392C1.87976 8.41893 1.87447 8.70098 1.85861 8.98128C1.83569 9.25276 1.84274 9.56126 1.83922 9.85918L1.77575 24.2124C1.72463 33.7812 1.59594 43.35 1.51485 52.9188L1.15346 52.7901L5.00707 48.0727L8.8413 43.3394L8.89594 43.2724L8.98233 43.2812C9.40012 43.3253 9.8426 43.3059 10.2816 43.3095L11.6002 43.3059L14.2356 43.2989L19.5066 43.2636L30.0485 43.1437L40.5904 43.0292L45.8614 43.0009L51.1323 42.9957L53.7678 43.0062C54.2173 43.0168 54.6228 42.9886 55.0388 42.971C55.4496 42.9093 55.8656 42.8705 56.264 42.7506C56.465 42.6995 56.6695 42.6554 56.8616 42.5761C57.0555 42.5038 57.2565 42.4421 57.4469 42.361L58.011 42.0948C58.1996 42.0049 58.3706 41.8851 58.5522 41.7828C59.2556 41.3386 59.9078 40.8009 60.4508 40.161C60.9885 39.5193 61.4415 38.8071 61.78 38.0367C62.1167 37.2646 62.3088 36.4361 62.3987 35.5987L62.4411 34.9658L62.4516 34.3083L62.471 32.9897L62.5098 30.3542L62.6561 19.8123L62.6949 14.5413L62.7178 9.26863Z" fill="#DADADA"/>
<path d="M33.0521 30.1692V32.1524C33.0521 33.5221 31.9344 34.6398 30.5647 34.6398H13.4015C11.9947 34.6398 10.9141 33.5221 10.9141 32.1524V30.1692C10.9141 28.7994 11.9965 27.6818 13.4015 27.6818H30.5647C31.9344 27.68 33.0521 28.7977 33.0521 30.1692Z" fill="#DADADA"/>
<path d="M54.5801 12.2479V14.2311C54.5801 15.6008 53.4625 16.7185 52.0927 16.7185H13.4015C11.9947 16.7185 10.9141 15.6008 10.9141 14.2311V12.2479C10.9141 10.8782 11.9965 9.7605 13.4015 9.7605H52.0927C53.4625 9.75874 54.5801 10.8764 54.5801 12.2479Z" fill="#DADADA"/>
<path d="M54.5801 21.1892V23.2077C54.5801 24.5774 53.4625 25.695 52.0927 25.695H13.4015C11.9947 25.695 10.9141 24.5774 10.9141 23.2077V21.1892C10.9141 19.8194 11.9965 18.7018 13.4015 18.7018H52.0927C53.4625 18.7018 54.5801 19.8194 54.5801 21.1892Z" fill="#DADADA"/>
<path d="M33.0888 30.1692V31.5036C33.0888 32.8734 31.9711 33.991 30.6014 33.991H14.0499C12.6802 33.991 11.5625 32.8734 11.5625 31.5036V30.1692C11.5625 28.7624 12.6802 27.6818 14.0499 27.6818H30.6014C31.9711 27.68 33.0888 28.7624 33.0888 30.1692Z" fill="#C7E3F1"/>
<path d="M54.5798 12.2479V13.5824C54.5798 14.9521 53.4622 16.0698 52.0924 16.0698H14.0499C12.6802 16.0698 11.5625 14.9521 11.5625 13.5824V12.2479C11.5625 10.8782 12.6802 9.7605 14.0499 9.7605H52.0907C53.4622 9.75874 54.5798 10.8764 54.5798 12.2479Z" fill="#C7E3F1"/>
<path d="M54.5798 21.1909V22.5254C54.5798 23.8951 53.4622 25.0128 52.0924 25.0128H14.0499C12.6802 25.0128 11.5625 23.8951 11.5625 22.5254V21.1909C11.5625 19.8211 12.6802 18.7035 14.0499 18.7035H52.0907C53.4622 18.7017 54.5798 19.8194 54.5798 21.1909Z" fill="#C7E3F1"/>
<path opacity="0.5" d="M52.2067 20.7396V21.0639C52.2067 21.4958 51.847 21.8572 51.4134 21.8572H17.0482C16.6163 21.8572 16.2549 21.4976 16.2549 21.0639V20.7396C16.2549 20.3077 16.6145 19.9463 17.0482 19.9463H51.4116C51.8453 19.9463 52.2067 20.3059 52.2067 20.7396Z" fill="white"/>
<path opacity="0.5" d="M30.6063 29.6826V30.0069C30.6063 30.4759 30.2467 30.8372 29.813 30.8372H17.0482C16.6163 30.8372 16.2549 30.4759 16.2549 30.0069V29.6826C16.2549 29.2507 16.6145 28.8893 17.0482 28.8893H29.813C30.2467 28.8875 30.6063 29.2489 30.6063 29.6826Z" fill="white"/>
<path opacity="0.5" d="M52.2067 11.7966V12.1209C52.2067 12.5528 51.847 12.9142 51.4134 12.9142H17.0482C16.6163 12.9142 16.2549 12.5546 16.2549 12.1209V11.7966C16.2549 11.3276 16.6145 10.968 17.0482 10.968H51.4116C51.8453 10.968 52.2067 11.3276 52.2067 11.7966Z" fill="white"/>
</svg>
