<svg width="66" height="62" viewBox="0 0 66 62" fill="none" xmlns="http://www.w3.org/2000/svg">
<g opacity="0.5">
<path opacity="0.5" d="M56.9795 43.622H51.0645C51.0592 43.622 51.0557 43.6185 51.0557 43.6132V35.6795C51.0557 35.6742 51.0592 35.6707 51.0645 35.6707H56.9795C56.9848 35.6707 56.9883 35.6742 56.9883 35.6795V43.6132C56.9883 43.6185 56.9848 43.622 56.9795 43.622Z" fill="#DD8F7B"/>
<path opacity="0.5" d="M46.4152 34.4731C47.0263 34.361 47.3303 33.2274 47.0942 31.9412C46.8582 30.6549 46.1715 29.7031 45.5605 29.8153C44.9494 29.9274 44.6454 31.061 44.8815 32.3472C45.1175 33.6335 45.8042 34.5853 46.4152 34.4731Z" fill="#DD8F7B"/>
<path opacity="0.5" d="M63.1675 32.3507C63.4035 31.0644 63.0995 29.9308 62.4885 29.8187C61.8775 29.7066 61.1908 30.6584 60.9547 31.9446C60.7187 33.2309 61.0227 34.3645 61.6337 34.4766C62.2448 34.5887 62.9314 33.6369 63.1675 32.3507Z" fill="#DD8F7B"/>
<path opacity="0.5" d="M54.0203 40.3904C58.4585 40.3904 62.0563 35.7735 62.0563 30.0783C62.0563 24.3831 58.4585 19.7662 54.0203 19.7662C49.5822 19.7662 45.9844 24.3831 45.9844 30.0783C45.9844 35.7735 49.5822 40.3904 54.0203 40.3904Z" fill="#F4A98A"/>
<path opacity="0.05" d="M62.0566 30.0782C62.0566 35.7728 58.4565 40.3885 54.0206 40.3885C52.8535 40.3885 51.7481 40.0711 50.7449 39.4964C53.9642 39.075 56.0146 35.593 56.0146 31.3511C56.0146 26.8324 53.6187 23.1547 50.0961 23.1547C49.2322 23.1547 48.4106 23.3751 47.6631 23.77C49.1352 21.337 51.436 19.7697 54.0206 19.7697C58.4565 19.7679 62.0566 24.3836 62.0566 30.0782Z" fill="white"/>
<path opacity="0.5" d="M62.0574 29.8879C62.0574 29.8844 62.0539 29.8844 62.0539 29.8791C62.0539 29.768 62.0504 29.6552 62.0451 29.5441C62.0416 29.3907 62.0327 29.2373 62.0204 29.0875C62.0081 28.9059 61.9922 28.726 61.971 28.548C61.9464 28.3329 61.9164 28.116 61.8794 27.9062C61.8582 27.7775 61.8335 27.6488 61.8088 27.5254C61.7718 27.3297 61.7295 27.1393 61.6801 26.9489C61.6466 26.8078 61.6096 26.6703 61.5691 26.5346C61.532 26.39 61.4862 26.249 61.4404 26.1114C61.391 25.9545 61.3363 25.8011 61.2782 25.6478C61.2323 25.5191 61.183 25.3904 61.1283 25.2669C61.1283 25.2634 61.1283 25.2546 61.1248 25.2511V25.2475C61.1124 25.2264 61.1036 25.2017 61.0913 25.1806C61.0878 25.1647 61.0825 25.1523 61.0754 25.1382C61.0172 25.0007 60.9591 24.865 60.8938 24.7327C60.8268 24.5917 60.7563 24.4506 60.6858 24.3149C60.6117 24.1774 60.5359 24.0416 60.4619 23.9129C60.4002 23.8018 60.3332 23.6925 60.2626 23.585C60.2503 23.5638 60.238 23.5427 60.2203 23.5233C60.0423 23.2412 59.8519 22.9767 59.6491 22.7229C59.5909 22.6488 59.5327 22.5783 59.4746 22.5078C59.4287 22.4531 59.3829 22.4002 59.3335 22.3456C59.2789 22.2839 59.2225 22.2204 59.1643 22.1587C59.0567 22.0423 58.9439 21.926 58.8293 21.8184C58.7623 21.7514 58.6883 21.6862 58.6177 21.6227C58.5507 21.561 58.4802 21.5028 58.4097 21.4447C58.4062 21.4411 58.4062 21.4411 58.4009 21.4358C58.3304 21.3777 58.2598 21.3195 58.1893 21.2666C58.11 21.2049 58.0324 21.1414 57.9495 21.085C57.8702 21.0268 57.7873 20.9739 57.7045 20.9193C57.6304 20.8699 57.5511 20.8205 57.4718 20.7694C57.3889 20.72 57.306 20.6707 57.2232 20.6248C57.1985 20.609 57.1738 20.5913 57.1491 20.579C57.0292 20.512 56.9093 20.4503 56.7842 20.3921C56.5391 20.2758 56.287 20.177 56.0296 20.0889C55.9009 20.0466 55.7722 20.0095 55.6399 19.9778C55.5112 19.9408 55.379 19.9108 55.2468 19.8861C55.2186 19.8826 55.1851 19.8773 55.1516 19.8738C55.0899 19.8614 55.0229 19.8491 54.9559 19.8403C54.8942 19.8279 54.8307 19.8191 54.7655 19.8156C54.6791 19.8033 54.5909 19.7944 54.5045 19.7909C54.4622 19.7874 54.4217 19.7874 54.3847 19.7821C54.3423 19.7821 54.3018 19.7786 54.2595 19.7786H54.2313C54.2031 19.7751 54.1731 19.7751 54.1449 19.7698C54.1026 19.7698 54.062 19.7662 54.025 19.7662C53.988 19.7662 53.9457 19.7662 53.9051 19.7698C53.8628 19.7698 53.8222 19.7698 53.7852 19.7733C53.7024 19.7768 53.623 19.7821 53.5455 19.7856C53.4661 19.7892 53.3832 19.798 53.3057 19.8103C53.244 19.8191 53.1805 19.8227 53.1153 19.835C53.0941 19.835 53.0694 19.8385 53.0483 19.8438C52.9901 19.8526 52.9284 19.865 52.8667 19.8773C52.8579 19.8773 52.8455 19.8773 52.8385 19.8808C52.7591 19.8932 52.6851 19.909 52.6057 19.9302C52.4524 19.9637 52.299 20.0042 52.1491 20.0501C52.0751 20.0748 51.9993 20.0959 51.9252 20.1241C51.83 20.1576 51.7348 20.1911 51.6396 20.2282C51.6237 20.237 51.6061 20.2405 51.5902 20.2493C51.4827 20.2916 51.3751 20.341 51.2676 20.3904C51.1636 20.4362 51.0684 20.4891 50.9696 20.5402C50.9573 20.549 50.9414 20.5526 50.9273 20.5614C50.9185 20.5649 50.9062 20.5737 50.8991 20.5772C50.8956 20.5808 50.8903 20.5808 50.8868 20.5861C50.8744 20.5949 50.8586 20.6019 50.8409 20.6107C50.7493 20.6601 50.6541 20.7148 50.5677 20.7676C50.5589 20.7712 50.5553 20.7765 50.5465 20.78C50.5254 20.7923 50.5095 20.8011 50.4919 20.8135C50.4707 20.8258 50.4495 20.8382 50.4302 20.8558C50.372 20.8928 50.3191 20.9298 50.2609 20.9722C50.2274 20.9933 50.1939 21.0145 50.1622 21.0427C50.134 21.0585 50.1075 21.0762 50.0828 21.0973C50.0493 21.1185 50.0158 21.1432 49.9876 21.1679C49.8713 21.2542 49.7602 21.3424 49.6474 21.4376C49.6438 21.4411 49.635 21.4464 49.6315 21.4499C49.5857 21.487 49.5398 21.524 49.494 21.5698C49.4517 21.6033 49.4111 21.6368 49.3741 21.6774C49.3406 21.7021 49.3124 21.732 49.2789 21.7602C49.2754 21.7602 49.2754 21.7602 49.2754 21.7638C49.2595 21.7796 49.2383 21.7973 49.2207 21.8184C49.1167 21.9136 49.018 22.0176 48.9175 22.1217C48.8187 22.2257 48.7182 22.3368 48.623 22.4496C48.5772 22.5042 48.5313 22.5536 48.4943 22.6065C48.4908 22.6065 48.4908 22.61 48.4908 22.61C48.4414 22.6682 48.3956 22.7264 48.3462 22.7881C48.3304 22.804 48.318 22.8216 48.3092 22.8375L48.3057 22.841C48.2845 22.8657 48.2634 22.8904 48.2475 22.9203C48.2228 22.9485 48.2017 22.9785 48.1858 23.0067C48.1488 23.049 48.1153 23.0931 48.0818 23.1389V23.1425C48.0536 23.1848 48.0236 23.2253 47.9954 23.2712C47.9619 23.317 47.9284 23.3629 47.9037 23.4087C47.8755 23.4457 47.8491 23.4827 47.8297 23.5198C47.7838 23.5815 47.7433 23.6485 47.7045 23.7155C47.6921 23.7313 47.6833 23.749 47.6763 23.7648V23.7684H47.6727C47.6445 23.8142 47.6181 23.86 47.5899 23.9059C47.5106 24.0434 47.433 24.1844 47.3572 24.329C47.2866 24.4612 47.2196 24.5935 47.1579 24.731C47.1033 24.842 47.0504 24.9584 47.001 25.0748C46.8512 25.4239 46.7154 25.7835 46.5955 26.1573C46.5585 26.2825 46.5162 26.4059 46.4845 26.5346C46.4474 26.6545 46.4139 26.7796 46.3857 26.903C46.287 27.2892 46.2077 27.6858 46.146 28.0931C46.1301 28.1971 46.1177 28.3011 46.1001 28.4087C46.0842 28.5409 46.0719 28.6731 46.0578 28.8071C46.0366 29.031 46.0208 29.2549 46.012 29.4824C46.0031 29.6199 45.9996 29.7557 45.9996 29.8967V29.9002C45.9961 29.9584 45.9961 30.0166 45.9961 30.0748V30.0924C45.9961 30.2669 45.9996 30.4415 46.0084 30.6107C46.012 30.7729 46.0208 30.9334 46.0331 31.092C46.0455 31.2366 46.0578 31.3829 46.0754 31.524C46.0913 31.665 46.1089 31.8061 46.1301 31.9418C46.1301 31.9454 46.1336 31.9506 46.1301 31.9542C46.1583 32.1622 46.1971 32.365 46.2341 32.5677C46.2764 32.7705 46.317 32.9732 46.3663 33.1689C46.4245 33.4052 46.4862 33.6379 46.5567 33.8618C46.6026 34.0116 46.6484 34.1562 46.7013 34.3008C46.7013 34.3096 46.7048 34.3219 46.7101 34.329V34.3325C46.7137 34.3449 46.7189 34.3537 46.7225 34.366C46.7683 34.4912 46.8141 34.6146 46.8635 34.7398C46.8635 34.7433 46.867 34.7521 46.8723 34.7557C46.9005 34.835 46.934 34.9126 46.9675 34.9919C46.9711 35.0042 46.9799 35.0166 46.9834 35.0289C46.9869 35.0448 46.9957 35.0571 46.9993 35.0748C47.0416 35.17 47.0821 35.2616 47.128 35.3533C47.1491 35.4027 47.1738 35.4521 47.202 35.5067C47.2302 35.5772 47.2637 35.6442 47.2972 35.7059C47.3254 35.7641 47.3554 35.817 47.3836 35.8752C47.4506 36.0039 47.5211 36.1273 47.5916 36.249C47.671 36.3812 47.7486 36.5099 47.8314 36.6386C47.9108 36.7585 47.9883 36.8784 48.0712 36.9947C48.0747 36.9982 48.08 37.0071 48.0835 37.0159C48.1699 37.1358 48.2581 37.2521 48.348 37.3685V37.372C48.3568 37.3808 48.3603 37.3844 48.3639 37.3932C48.4009 37.4425 48.4432 37.4884 48.4837 37.5377L48.4961 37.5501C48.5455 37.6118 48.5948 37.6788 48.653 37.7405C48.7112 37.8075 48.7694 37.8692 48.8311 37.9362C48.9051 38.0226 48.9845 38.1054 49.0638 38.1848L49.2207 38.3417C49.3194 38.4369 49.4235 38.5321 49.5275 38.6238C49.5398 38.6326 49.5522 38.6396 49.5645 38.652C49.5804 38.6643 49.598 38.6802 49.6139 38.689C49.7126 38.7754 49.8166 38.8583 49.9206 38.9376C50.037 39.0293 50.1533 39.1157 50.2732 39.1897C50.2768 39.1985 50.2821 39.1985 50.2856 39.2021C50.3561 39.2514 50.4266 39.2973 50.5007 39.3431C50.5835 39.3978 50.6664 39.4471 50.7528 39.493L50.7563 39.4965C50.848 39.5511 50.9432 39.6005 51.0349 39.6499C51.0437 39.6499 51.0472 39.6534 51.056 39.6587V39.6622C51.056 39.6622 51.056 39.6587 51.0596 39.6587C51.0842 39.6746 51.1089 39.6869 51.1336 39.6957C51.2323 39.7451 51.3328 39.7944 51.4368 39.8368C51.4792 39.8579 51.5232 39.8791 51.5656 39.8914C51.5744 39.8949 51.5779 39.9002 51.5867 39.9002C51.6149 39.9126 51.6449 39.9284 51.6784 39.9425C51.7489 39.9707 51.823 39.9972 51.8988 40.0219C51.9076 40.0254 51.9146 40.0254 51.9234 40.0307C52.0557 40.0801 52.1932 40.1224 52.3289 40.1594C52.4365 40.1876 52.5493 40.2176 52.6639 40.2423C52.6727 40.2423 52.6798 40.2458 52.6886 40.2458C52.7045 40.2493 52.7256 40.2546 52.7433 40.2581C52.7591 40.2616 52.7803 40.2669 52.7979 40.2705C52.8014 40.2705 52.8014 40.2705 52.8067 40.2705C52.8402 40.2793 52.8773 40.2828 52.9108 40.2863C53.0095 40.3075 53.11 40.3234 53.2087 40.3357C53.3374 40.3516 53.4661 40.3639 53.5948 40.3727C53.6371 40.3762 53.6812 40.3815 53.7235 40.3815C53.8275 40.3851 53.9263 40.3904 54.0303 40.3904C54.2172 40.3904 54.3988 40.3815 54.5768 40.3657C54.6685 40.3568 54.7584 40.3498 54.8501 40.3375C55.0987 40.304 55.3438 40.2581 55.5835 40.1964C55.6787 40.1753 55.7739 40.147 55.8656 40.1171C55.8938 40.1083 55.9238 40.1012 55.952 40.0924C56.0225 40.0712 56.093 40.0466 56.16 40.0219C56.2341 39.9972 56.3099 39.9672 56.384 39.939C56.4174 39.9267 56.4509 39.9143 56.4827 39.8967C56.5655 39.8685 56.6449 39.8297 56.7225 39.7927C56.8141 39.7504 56.9041 39.7098 56.9922 39.664V39.6604C57.1121 39.5987 57.232 39.5317 57.3536 39.4648C57.47 39.3942 57.5863 39.3237 57.7027 39.2444C57.7979 39.1827 57.8984 39.1121 57.9936 39.0416C58.0024 39.0381 58.006 39.0328 58.0148 39.0293C58.0359 39.0169 58.0571 39.0011 58.0765 38.9834C58.0853 38.9799 58.0923 38.9711 58.1012 38.9676C58.1752 38.9129 58.2422 38.8565 58.3127 38.7983C58.3162 38.7948 58.3251 38.7895 58.3286 38.786C58.3533 38.7701 58.378 38.749 58.4026 38.7243C58.4397 38.6961 58.482 38.6626 58.519 38.6291C58.5225 38.6255 58.5313 38.6203 58.5349 38.6167C58.5684 38.5885 58.6019 38.5585 58.6301 38.5303C58.6424 38.518 58.6512 38.5092 58.6636 38.4968C58.6794 38.488 58.6918 38.4757 58.7059 38.4598C58.7887 38.3858 58.8716 38.3064 58.9545 38.22C59.092 38.0913 59.2154 37.9591 59.3353 37.8216C59.3935 37.7546 59.4517 37.6894 59.5045 37.6224C59.5134 37.6136 59.5169 37.61 59.5204 37.6012C59.5662 37.5518 59.6068 37.4972 59.6456 37.4478C59.6826 37.402 59.7196 37.3614 59.7496 37.3156C59.8166 37.2327 59.8783 37.1463 59.94 37.0582C59.9647 37.0247 59.9894 36.9965 60.007 36.9665C60.0775 36.8678 60.1481 36.7638 60.215 36.6597C60.2186 36.6562 60.2239 36.6474 60.2274 36.6386V36.6351C60.2362 36.6315 60.2397 36.6227 60.2433 36.6139C60.3014 36.5275 60.3543 36.4323 60.4125 36.3406C60.4213 36.3248 60.4284 36.3124 60.4372 36.2948C60.4584 36.2666 60.4742 36.2366 60.4866 36.2119C60.5483 36.1044 60.6117 35.9915 60.6682 35.8805C60.684 35.8558 60.6964 35.8311 60.7052 35.81C60.7722 35.6848 60.8339 35.5578 60.8956 35.4291V35.4256C60.9449 35.3216 60.9943 35.2176 61.0402 35.11C61.049 35.0942 61.056 35.0765 61.0613 35.0607C61.0736 35.036 61.0825 35.0148 61.0895 34.9937C61.123 34.9143 61.1565 34.8368 61.1847 34.7574C61.1882 34.7539 61.1882 34.7451 61.1935 34.7415C61.2429 34.6217 61.2887 34.4965 61.3311 34.3731C61.3346 34.3695 61.3346 34.3695 61.3346 34.3643C61.3381 34.3519 61.3434 34.3431 61.3469 34.3308C61.3505 34.3184 61.3557 34.3096 61.3593 34.2973C61.4051 34.165 61.4509 34.0275 61.4915 33.8918C61.5285 33.7807 61.562 33.6643 61.5902 33.548C61.6237 33.4369 61.6519 33.3241 61.6819 33.213C61.7189 33.0719 61.7524 32.9274 61.7806 32.7775C61.8018 32.6735 61.8229 32.5695 61.8423 32.4619C61.8582 32.3791 61.8705 32.2962 61.8882 32.2133C61.9129 32.0511 61.9375 31.8907 61.9587 31.725C61.971 31.6262 61.9799 31.5222 61.9869 31.4217C62.0363 30.9827 62.0574 30.5349 62.0574 30.0783C62.0574 30.0201 62.0574 29.9619 62.0539 29.9038C62.0521 29.8967 62.0574 29.8932 62.0574 29.8879ZM61.8917 30.1999C61.8917 31.6262 61.6555 32.982 61.2288 34.2038C60.4072 36.5751 58.8787 38.4528 56.9887 39.3942C56.1265 39.8297 55.1851 40.066 54.2031 40.066C53.2034 40.066 52.2496 39.8209 51.3751 39.3731H51.3716C51.2641 39.3184 51.16 39.262 51.056 39.1985C49.2189 38.1407 47.7644 36.1855 47.0345 33.7631C47.001 33.6643 46.9728 33.5638 46.9481 33.4598V33.4563C46.6837 32.5025 46.5338 31.487 46.5162 30.4256V30.4221C46.5127 30.348 46.5127 30.2722 46.5127 30.1982C46.5127 27.5413 47.329 25.1365 48.6636 23.3629C48.9245 23.0067 49.2154 22.6753 49.5222 22.3755C50.8163 21.0903 52.44 20.3322 54.2031 20.3322C56.4368 20.3322 58.452 21.5557 59.8572 23.5162C61.0507 25.1788 61.8106 27.3667 61.8847 29.7892C61.8882 29.8632 61.8882 29.9425 61.8882 30.0166C61.8917 30.0801 61.8917 30.1365 61.8917 30.1999Z" fill="#DD8F7B"/>
<path opacity="0.5" d="M65.3515 50.2934V61.665H42.6875V50.2934C42.6875 47.3826 44.2883 44.8544 46.6544 43.5321C47.1268 43.2676 47.6293 43.0508 48.1547 42.8939V42.8903C48.1582 42.8903 48.1582 42.8903 48.1582 42.8903C48.2199 42.8692 48.2834 42.8533 48.3451 42.8357C48.465 42.8022 48.5902 42.7687 48.7136 42.744C48.8 42.7228 48.8881 42.707 48.978 42.6893C49.1649 42.6558 49.3518 42.6276 49.5457 42.6065C49.641 42.5941 49.7362 42.5853 49.8314 42.5783C50.0271 42.5624 50.221 42.5536 50.4167 42.5536H57.6099C59.745 42.5536 61.6843 43.4192 63.0824 44.8209C63.5214 45.2599 63.9075 45.75 64.2302 46.2807C64.3589 46.4922 64.4787 46.7126 64.5863 46.9365C64.6938 47.164 64.7943 47.3967 64.8807 47.6365C64.9266 47.7563 64.9636 47.8762 65.0006 47.9979C65.2316 48.7225 65.3515 49.4929 65.3515 50.2934Z" fill="#252550"/>
<path opacity="0.05" d="M64.179 50.3427V61.6649H58.6906V51.3582C58.6906 47.0881 55.2245 43.6272 50.9544 43.6272H46.5098C46.5591 43.599 46.605 43.5726 46.6543 43.5479C47.1304 43.287 47.6328 43.0754 48.1635 42.9255C48.1635 42.922 48.1635 42.922 48.1635 42.922C48.8564 42.714 49.5933 42.6029 50.3567 42.6029H56.4392C56.6208 42.6029 56.8042 42.6117 56.9858 42.6241C61.0038 42.9009 64.179 46.2471 64.179 50.3427Z" fill="white"/>
<path opacity="0.5" d="M50.1952 25.9757C50.1952 25.9757 49.0298 28.1389 48.0319 28.8054C47.034 29.4718 47.7816 32.9556 47.2826 33.5021C46.7837 34.0487 45.0348 30.6354 45.5355 25.9757C46.0362 21.316 48.1148 19.4013 49.7809 18.4845C51.447 17.5677 56.7714 17.3191 59.185 18.4845C61.5986 19.6499 62.5965 24.8103 62.5965 26.3071C62.5965 27.8057 62.2456 30.3339 61.9124 29.835C61.5792 29.3361 61.1825 25.2246 60.1828 24.8932C59.185 24.56 58.351 26.3918 56.1878 26.8078C54.0245 27.2239 51.7766 25.7271 50.1952 25.9757Z" fill="#252550"/>
<path opacity="0.1" d="M62.047 28.5514C62.0046 28.5796 61.9641 28.5655 61.9218 28.5038C61.5903 27.9996 61.1901 23.8952 60.194 23.5567C59.1926 23.2253 58.3622 25.0553 56.2007 25.4714C55.7511 25.5613 55.3015 25.5613 54.8608 25.5137C53.8241 23.5849 52.1527 22.342 50.1059 22.342C49.242 22.342 48.4204 22.5624 47.6729 22.9573C49.145 20.5243 51.4458 18.9569 54.0304 18.9569C55.4444 18.9569 57.657 18.9428 58.8118 19.7679C61.1266 21.4164 61.8583 24.9742 62.047 28.5514Z" fill="white"/>
</g>
<g opacity="0.5">
<path opacity="0.5" d="M14.9404 43.6219H9.02542C9.02013 43.6219 9.0166 43.6183 9.0166 43.6131V35.6793C9.0166 35.6741 9.02013 35.6705 9.02542 35.6705H14.9404C14.9457 35.6705 14.9493 35.6741 14.9493 35.6793V43.6131C14.9475 43.6183 14.944 43.6219 14.9404 43.6219Z" fill="#DD8F7B"/>
<path opacity="0.5" d="M4.37618 34.4747C4.98722 34.3626 5.29121 33.229 5.05517 31.9428C4.81914 30.6565 4.13245 29.7047 3.52142 29.8169C2.91038 29.929 2.60638 31.0626 2.84242 32.3488C3.07846 33.6351 3.76515 34.5869 4.37618 34.4747Z" fill="#DD8F7B"/>
<path opacity="0.5" d="M21.1265 32.3507C21.3625 31.0644 21.0585 29.9308 20.4475 29.8187C19.8364 29.7066 19.1497 30.6584 18.9137 31.9446C18.6777 33.2309 18.9817 34.3645 19.5927 34.4766C20.2037 34.5887 20.8904 33.6369 21.1265 32.3507Z" fill="#DD8F7B"/>
<path opacity="0.5" d="M11.9823 40.3901C16.4204 40.3901 20.0182 35.7732 20.0182 30.0781C20.0182 24.3829 16.4204 19.766 11.9823 19.766C7.54411 19.766 3.94629 24.3829 3.94629 30.0781C3.94629 35.7732 7.54411 40.3901 11.9823 40.3901Z" fill="#F4A98A"/>
<path opacity="0.05" d="M20.0185 30.0782C20.0185 35.7728 16.4184 40.3885 11.9825 40.3885C10.8154 40.3885 9.70998 40.0711 8.70681 39.4964C11.9261 39.075 13.9766 35.593 13.9766 31.3511C13.9766 26.8324 11.5806 23.1547 8.05801 23.1547C7.19411 23.1547 6.37253 23.3751 5.625 23.77C7.09714 21.337 9.39792 19.7697 11.9825 19.7697C16.4184 19.7679 20.0185 24.3836 20.0185 30.0782Z" fill="white"/>
<path opacity="0.5" d="M20.0204 29.8876C20.0204 29.8841 20.0168 29.8841 20.0168 29.8788C20.0133 29.4274 19.9833 28.9867 19.934 28.553C19.9093 28.3414 19.8793 28.1298 19.8476 27.9236C19.8264 27.8195 19.8106 27.7155 19.7894 27.6168C19.7471 27.3929 19.703 27.1725 19.6484 26.9574C19.569 26.6542 19.4862 26.3562 19.391 26.0653C19.3363 25.9084 19.2834 25.7585 19.2288 25.6051V25.6016C19.1829 25.4764 19.13 25.353 19.0754 25.2279C19.0754 25.219 19.0754 25.2155 19.0719 25.212C19.056 25.175 19.0384 25.1327 19.0225 25.0956C18.9678 24.9705 18.9149 24.8506 18.8568 24.7307C18.6699 24.3322 18.4583 23.9479 18.2274 23.5865C18.1022 23.3872 17.9699 23.1933 17.8342 23.0064C17.7601 22.9024 17.6808 22.8037 17.6015 22.7085C17.5733 22.6661 17.5398 22.6256 17.5063 22.5886C17.4075 22.4634 17.2982 22.3435 17.1907 22.2271C17.1907 22.2236 17.1872 22.2183 17.1783 22.2148C17.0532 22.0773 16.9262 21.9451 16.7922 21.8164C16.3814 21.4179 15.9389 21.0741 15.4699 20.785C15.4699 20.7815 15.4699 20.7815 15.4664 20.785V20.7815C15.3501 20.7109 15.2337 20.6404 15.1138 20.5787C15.1138 20.5752 15.1138 20.5752 15.1103 20.5787V20.5752C15.0821 20.5593 15.0521 20.5417 15.0239 20.5329C14.9957 20.5117 14.9657 20.4994 14.9322 20.487C14.8582 20.45 14.7824 20.413 14.7083 20.3795C14.6836 20.3671 14.6589 20.3548 14.629 20.3425C14.5461 20.3054 14.4632 20.2684 14.3804 20.2384C14.3592 20.2296 14.3434 20.2226 14.3222 20.2138C14.2728 20.1926 14.2235 20.1767 14.1723 20.1591C14.0983 20.1344 14.0278 20.1044 13.9573 20.085C13.9414 20.0762 13.9202 20.0692 13.9026 20.0639C13.8039 20.0304 13.7034 20.0022 13.6046 19.9775C13.6011 19.9775 13.6011 19.9775 13.5958 19.974C13.4671 19.9405 13.3384 19.9123 13.2062 19.8876C13.1815 19.8841 13.1568 19.8788 13.1321 19.8752C13.0369 19.8594 12.9364 19.8417 12.8412 19.8294C12.7989 19.8259 12.7619 19.8206 12.7214 19.8171C12.6385 19.8047 12.5521 19.7959 12.464 19.7924C12.4216 19.7889 12.3811 19.7889 12.3388 19.7836C12.3017 19.7836 12.2594 19.78 12.2189 19.78C12.2101 19.78 12.1977 19.78 12.1907 19.7765C12.1202 19.7765 12.0532 19.7677 11.9826 19.7677C11.9403 19.7677 11.9033 19.7677 11.8628 19.7712C11.8204 19.7712 11.7834 19.7712 11.7429 19.7748C11.66 19.7783 11.5807 19.7836 11.5031 19.7871C11.4238 19.7906 11.3409 19.7994 11.2633 19.8118C11.2016 19.8206 11.1346 19.8276 11.0729 19.8365H11.0606C11.0517 19.8365 11.0394 19.8365 11.0324 19.84C10.9618 19.8523 10.8913 19.8647 10.8208 19.877C10.812 19.877 10.8049 19.8805 10.7961 19.8805C10.7221 19.8929 10.6427 19.9087 10.5634 19.9299C10.4135 19.9634 10.2601 20.0039 10.1068 20.0498C10.0327 20.0745 9.9569 20.0956 9.88285 20.1238C9.65894 20.1979 9.44385 20.286 9.227 20.3883C9.20231 20.4006 9.18116 20.413 9.15647 20.4218C9.14413 20.4306 9.13179 20.4341 9.11945 20.4429C9.07009 20.4641 9.02072 20.4888 8.96959 20.517C8.94491 20.5293 8.91494 20.5452 8.89025 20.5593C8.86557 20.5716 8.84089 20.584 8.81621 20.6016C8.77389 20.6228 8.73687 20.6475 8.69632 20.6721C8.67516 20.681 8.65401 20.6933 8.63461 20.7056C8.61346 20.7145 8.5923 20.7268 8.57643 20.7391C8.51472 20.7762 8.45126 20.8185 8.38955 20.8555C8.36134 20.8767 8.33137 20.8925 8.30316 20.9137C8.2485 20.9472 8.19561 20.9807 8.14625 21.0177C8.09159 21.0547 8.04223 21.0882 7.99286 21.1288C7.97171 21.1446 7.94702 21.1623 7.92587 21.1834C7.91353 21.187 7.90119 21.1958 7.88884 21.2081C7.83948 21.2451 7.79364 21.2822 7.74427 21.3245C7.67728 21.3703 7.61204 21.4232 7.54857 21.4779C7.47805 21.5396 7.40401 21.603 7.33701 21.6683C7.32467 21.6771 7.31233 21.6894 7.29998 21.7053C7.2753 21.7212 7.25415 21.7423 7.23299 21.7635C7.21712 21.7793 7.19596 21.797 7.17833 21.8181C7.09547 21.8975 7.01261 21.975 6.93327 22.0579C6.91211 22.0791 6.89625 22.1002 6.87509 22.1196C6.84159 22.1566 6.80457 22.1937 6.77107 22.2307C6.70936 22.3012 6.64237 22.3717 6.58066 22.4458C6.56479 22.4616 6.55245 22.4793 6.53835 22.4951C6.51014 22.5286 6.48017 22.5621 6.45196 22.5992V22.6027H6.44843C6.39907 22.6609 6.3497 22.719 6.30386 22.7807V22.7843C6.288 22.8001 6.27565 22.8178 6.26684 22.8336L6.26331 22.8372C6.24216 22.8618 6.221 22.8865 6.20513 22.9165C6.18045 22.9447 6.15929 22.9747 6.14343 23.0029C6.1064 23.0452 6.0729 23.0893 6.03941 23.1351C6.00591 23.181 5.9777 23.2215 5.95302 23.2673C5.91599 23.3132 5.88602 23.359 5.86134 23.4049C5.83313 23.4419 5.80668 23.4789 5.78729 23.5159C5.74145 23.5776 5.7009 23.6446 5.66212 23.7116C5.64977 23.7275 5.64096 23.7451 5.63391 23.761V23.7645H5.63038C5.60217 23.8104 5.57572 23.8562 5.54752 23.902C5.46818 24.0396 5.39061 24.1806 5.31479 24.3252C5.24427 24.4574 5.17728 24.5896 5.11557 24.7272C5.04857 24.8682 4.98334 25.0128 4.91987 25.1591C4.79117 25.4535 4.6801 25.7515 4.5796 26.0635C4.53024 26.2169 4.4844 26.3703 4.43856 26.5325C4.40154 26.6524 4.36804 26.7776 4.33983 26.901C4.2411 27.2871 4.16176 27.6838 4.10006 28.091C4.08419 28.1951 4.07185 28.2991 4.05422 28.4066C4.03835 28.5389 4.02601 28.6711 4.0119 28.8051C3.99075 29.029 3.97488 29.2529 3.96606 29.4803C3.95725 29.6178 3.95372 29.7536 3.95372 29.8946V29.8982C3.9502 29.9563 3.9502 30.0145 3.9502 30.0727V30.0921C3.9502 30.2666 3.95372 30.4412 3.96254 30.6104C3.97488 30.9172 3.99604 31.2204 4.02953 31.5219C4.0454 31.663 4.06303 31.804 4.08419 31.9451C4.1124 32.1531 4.14589 32.3594 4.18821 32.5621C4.21642 32.719 4.24991 32.8724 4.28694 33.0258C4.34864 33.3114 4.42446 33.59 4.51085 33.8597C4.55668 34.0096 4.60252 34.1542 4.65541 34.2987C4.65541 34.3075 4.65894 34.3199 4.66423 34.3269C4.66776 34.3393 4.67305 34.3516 4.67657 34.364C4.72241 34.4891 4.76825 34.6126 4.81761 34.7377C4.81761 34.7413 4.82114 34.7501 4.82643 34.7536C4.85464 34.8329 4.88814 34.9105 4.92164 34.9898C4.92516 35.0022 4.93398 35.0145 4.9375 35.0269C4.94103 35.0427 4.94984 35.0551 4.95337 35.0727C4.99568 35.1679 5.03623 35.2596 5.08207 35.3513C5.10323 35.4006 5.12791 35.45 5.15612 35.5047C5.18433 35.5752 5.21783 35.6422 5.25132 35.7039C5.27953 35.7621 5.30951 35.815 5.33772 35.8731C5.40471 36.0018 5.47523 36.1252 5.54575 36.2469C5.62509 36.3791 5.70266 36.5078 5.78553 36.6365C5.86486 36.7564 5.94244 36.8763 6.0253 36.9927C6.0253 36.9962 6.02883 37.005 6.03764 37.0138C6.04646 37.0262 6.05351 37.0385 6.06585 37.0561C6.1399 37.1602 6.21924 37.2642 6.3021 37.3664V37.37C6.39378 37.4863 6.48898 37.5974 6.58066 37.7102C6.85393 38.0258 7.13955 38.3202 7.44279 38.5847C7.45866 38.6006 7.47629 38.6129 7.48863 38.627C7.51684 38.6552 7.55563 38.6852 7.58736 38.7134C7.66141 38.7751 7.74075 38.8386 7.81479 38.895C7.90118 38.962 7.98934 39.0272 8.07573 39.0854C8.10394 39.1101 8.13743 39.1312 8.1674 39.1524C8.27495 39.2317 8.38779 39.3023 8.49886 39.3728C8.56585 39.4151 8.63638 39.4556 8.7069 39.4927C8.71042 39.4927 8.71042 39.4962 8.71571 39.4962C8.73687 39.5121 8.76155 39.5244 8.78271 39.5385C8.80739 39.5508 8.83207 39.5667 8.85676 39.5808C8.91141 39.609 8.96078 39.6355 9.01367 39.6602H9.01719V39.6637C9.04188 39.676 9.06303 39.6884 9.08771 39.6972C9.19526 39.7518 9.30281 39.8012 9.41035 39.847C9.42269 39.8506 9.43856 39.8594 9.45267 39.8629L9.45619 39.8664C9.46501 39.87 9.46853 39.8752 9.47735 39.8752C9.48087 39.8788 9.48616 39.8788 9.48969 39.8788C9.50203 39.8823 9.51085 39.8876 9.52319 39.8911C9.57784 39.9158 9.63073 39.937 9.68539 39.9581C9.74709 39.9828 9.81056 40.0075 9.8758 40.0286C10.008 40.078 10.1455 40.1203 10.2813 40.1573C10.3924 40.1855 10.5052 40.2155 10.6163 40.2402C10.6251 40.2402 10.6321 40.2437 10.641 40.2437C10.6568 40.2472 10.678 40.2525 10.6956 40.2561C10.7538 40.2684 10.812 40.2807 10.8702 40.2896H10.886C10.9354 40.3019 10.9812 40.3107 11.0306 40.3142C11.0729 40.3231 11.1135 40.3266 11.1558 40.3354H11.1593C11.288 40.3513 11.4167 40.3636 11.5454 40.3724C11.5912 40.376 11.6318 40.3812 11.6776 40.3812C11.7764 40.3848 11.8804 40.3901 11.9809 40.3901C12.1131 40.3901 12.2506 40.3865 12.3828 40.3777C12.545 40.3654 12.7055 40.3495 12.8677 40.3231C12.9717 40.3142 13.0704 40.2984 13.1709 40.2737C13.2697 40.2578 13.3702 40.2367 13.4654 40.212C13.5447 40.1961 13.6223 40.175 13.7016 40.1538C13.7968 40.1256 13.892 40.0956 13.9872 40.0674C13.996 40.0639 14.0084 40.0586 14.0154 40.0551C14.0242 40.0551 14.0366 40.0516 14.0436 40.0463C14.1512 40.0092 14.2587 39.9722 14.3663 39.9264C14.3698 39.9264 14.3698 39.9264 14.3698 39.9264C14.495 39.877 14.6184 39.8224 14.7383 39.7642H14.7418C14.8123 39.7307 14.8793 39.6972 14.9446 39.6602C14.9569 39.6566 14.9692 39.6513 14.9816 39.6443C14.9974 39.6355 15.0098 39.6319 15.0274 39.6196C15.0521 39.6073 15.0768 39.5949 15.1015 39.5826C15.1226 39.5702 15.1385 39.5614 15.1596 39.5491C15.1755 39.5403 15.1879 39.5332 15.2055 39.5244C15.2337 39.5085 15.2637 39.4909 15.2919 39.475C15.3465 39.4415 15.4029 39.408 15.4576 39.3763C15.4858 39.3604 15.5158 39.3393 15.544 39.3181C15.6515 39.2511 15.7556 39.1806 15.8631 39.1066C15.8666 39.103 15.8754 39.0977 15.879 39.0942C15.9495 39.0449 16.0165 38.9955 16.0817 38.9408C16.1558 38.8862 16.2316 38.8298 16.3056 38.7663C16.3427 38.7328 16.3797 38.7046 16.4167 38.6711C16.4625 38.6288 16.5119 38.5918 16.5577 38.5459H16.5613C16.6195 38.4913 16.6776 38.4419 16.7305 38.389C16.7587 38.3608 16.7887 38.3343 16.8134 38.3061C16.9086 38.2197 16.995 38.1316 17.0778 38.0417C17.0814 38.0382 17.0867 38.0329 17.0867 38.0329C17.166 37.9535 17.2365 37.876 17.307 37.7931C17.3617 37.7314 17.4146 37.6679 17.4692 37.6027C17.5116 37.5533 17.5521 37.504 17.5891 37.4528C17.6138 37.4246 17.635 37.3946 17.6561 37.37C17.6685 37.3576 17.6808 37.3418 17.6896 37.3276C17.739 37.2607 17.7884 37.1989 17.8342 37.1319C17.8624 37.0949 17.8888 37.0579 17.9206 37.0156L17.9241 37.0068C17.94 36.9856 17.9523 36.9645 17.9699 36.9451C18.0317 36.8534 18.0951 36.7635 18.1515 36.6665C18.1604 36.6542 18.1674 36.6453 18.1727 36.633C18.1815 36.6295 18.1815 36.6242 18.185 36.6171C18.1886 36.6136 18.1939 36.6083 18.1974 36.6013C18.252 36.5184 18.3014 36.4355 18.3508 36.3527C18.3543 36.3492 18.3596 36.3403 18.3596 36.3368C18.3596 36.3333 18.3631 36.3333 18.3631 36.328C18.4001 36.2698 18.4336 36.2028 18.4707 36.1411C18.4918 36.1129 18.5041 36.0829 18.52 36.0583C18.5412 36.0212 18.557 35.9877 18.5747 35.9542C18.5958 35.9172 18.617 35.8802 18.6364 35.8432C18.6611 35.7885 18.691 35.7356 18.7192 35.681C18.7281 35.6721 18.7316 35.6598 18.7351 35.6475C18.7686 35.5769 18.8056 35.5064 18.8338 35.4394C18.8427 35.4306 18.8462 35.4236 18.8462 35.4147C18.8585 35.3936 18.8709 35.3689 18.8797 35.3477C18.9167 35.2649 18.959 35.182 18.9907 35.0956C19.0066 35.0621 19.0242 35.0286 19.0366 34.9969C19.0489 34.9599 19.0648 34.9264 19.0789 34.8929C19.1159 34.8065 19.1494 34.7183 19.1829 34.6319C19.2041 34.5826 19.2199 34.5367 19.2376 34.4909C19.2587 34.4363 19.2799 34.3869 19.2958 34.334V34.3305C19.2993 34.3181 19.3046 34.3093 19.3081 34.297C19.3539 34.1647 19.3998 34.0272 19.4403 33.8915C19.4774 33.7804 19.5108 33.664 19.5391 33.5477C19.5726 33.4366 19.6008 33.3238 19.6307 33.2127C19.6678 33.0717 19.7013 32.9271 19.7295 32.7772C19.7506 32.6732 19.7718 32.5692 19.7912 32.4616C19.807 32.3788 19.8194 32.2959 19.837 32.213C19.8617 32.0508 19.8864 31.8904 19.9075 31.7247C19.9199 31.626 19.9287 31.5219 19.9357 31.4214C19.9851 30.9824 20.0063 30.5346 20.0063 30.078C20.0063 30.0198 20.0063 29.9616 20.0027 29.9035C20.0151 29.8964 20.0204 29.8929 20.0204 29.8876ZM19.8529 30.1996C19.8529 31.626 19.6166 32.9817 19.19 34.2035C18.3684 36.5713 16.8398 38.4489 14.9498 39.3939C14.0877 39.8294 13.1463 40.0657 12.1642 40.0657C11.1646 40.0657 10.2108 39.8206 9.3363 39.3693H9.33278C9.22523 39.3199 9.12121 39.2617 9.01719 39.2C7.1801 38.1422 5.72558 36.194 4.99216 33.7769V33.7733C4.95866 33.6693 4.93045 33.5618 4.90048 33.4542C4.63955 32.5004 4.48969 31.4814 4.47382 30.42C4.47029 30.3495 4.4703 30.2755 4.4703 30.1996C4.4703 27.5427 5.28659 25.1379 6.62121 23.3643C6.88214 23.0082 7.17305 22.6767 7.47982 22.377C8.77742 21.0917 10.4029 20.3336 12.1642 20.3336C14.398 20.3336 16.4132 21.5572 17.8148 23.5177C19.0137 25.1803 19.7718 27.3682 19.8458 29.7906C19.8494 29.8647 19.8494 29.944 19.8494 30.0181C19.8529 30.0798 19.8529 30.1362 19.8529 30.1996Z" fill="#DD8F7B"/>
<path opacity="0.5" d="M23.3153 50.2932V61.6649H0.651367V50.2932C0.651367 49.759 0.706022 49.2354 0.808278 48.7312C0.857644 48.4826 0.91935 48.2375 0.995161 47.9978C1.74622 45.5718 3.65736 43.6571 6.07802 42.9061C6.25962 42.8497 6.44474 42.7985 6.63338 42.7545C7.19756 42.624 7.78289 42.5535 8.38409 42.5535H15.5773C15.9176 42.5535 16.2579 42.5746 16.584 42.624C16.7339 42.6363 16.882 42.661 17.0283 42.691C17.1112 42.7069 17.194 42.7245 17.2769 42.7456C17.3721 42.7615 17.4638 42.788 17.5555 42.8126C17.6383 42.8338 17.7212 42.8585 17.804 42.8832C17.9733 42.9325 18.139 42.9872 18.3065 43.0489L18.31 43.0524C21.2296 44.1543 23.3153 46.9769 23.3153 50.2932Z" fill="#252550"/>
<path opacity="0.05" d="M22.138 50.3426V61.6648H16.6532V51.3581C16.6532 47.088 13.1835 43.6271 8.91339 43.6271H4.46875C5.60415 42.9765 6.91409 42.6028 8.31924 42.6028H14.4018C14.5833 42.6028 14.7667 42.6116 14.9483 42.6239C16.1507 42.7068 17.2773 43.0682 18.2681 43.6395C20.583 44.9741 22.138 47.4741 22.138 50.3426Z" fill="white"/>
<path opacity="0.5" d="M8.1571 25.9756C8.1571 25.9756 6.99173 28.1388 5.99385 28.8052C4.99596 29.4717 5.74349 32.9554 5.24455 33.502C4.74561 34.0485 2.99667 30.6353 3.49737 25.9756C3.99631 21.3141 6.07671 19.4012 7.74279 18.4844C9.4071 17.5693 14.7333 17.319 17.1469 18.4844C19.5605 19.6497 20.5584 24.8102 20.5584 26.307C20.5584 27.8056 20.2075 30.3338 19.8743 29.8349C19.5411 29.3359 19.1444 25.2245 18.1448 24.893C17.1469 24.5598 16.313 26.3916 14.1497 26.8077C11.9847 27.2238 9.73856 25.727 8.1571 25.9756Z" fill="#252550"/>
<path opacity="0.1" d="M20.0079 28.5513C19.9656 28.5795 19.9251 28.5654 19.8827 28.5037C19.5513 27.9995 19.1511 23.8951 18.155 23.5566C17.1535 23.2251 16.3231 25.0552 14.1617 25.4713C13.7121 25.5612 13.2625 25.5612 12.8217 25.5136C11.7851 23.5848 10.1137 22.3418 8.0668 22.3418C7.2029 22.3418 6.38132 22.5622 5.63379 22.9572C7.10593 20.5242 9.40671 18.9568 11.9913 18.9568C13.4053 18.9568 15.6179 18.9427 16.7727 19.7678C19.0876 21.4163 19.8193 24.9741 20.0079 28.5513Z" fill="white"/>
</g>
<path d="M37.1535 35.154H29.3291C29.3238 35.154 29.3203 35.1505 29.3203 35.1452V24.6533C29.3203 24.6481 29.3238 24.6445 29.3291 24.6445H37.1535C37.1588 24.6445 37.1623 24.6481 37.1623 24.6533V35.1452C37.1623 35.1505 37.1588 35.154 37.1535 35.154Z" fill="#DD8F7B"/>
<path d="M23.1879 23.0652C23.9953 22.917 24.3968 21.418 24.0846 19.7171C23.7725 18.0162 22.8649 16.7574 22.0576 16.9056C21.2502 17.0537 20.8487 18.5527 21.1609 20.2536C21.473 21.9546 22.3806 23.2134 23.1879 23.0652Z" fill="#DD8F7B"/>
<path d="M45.3278 20.2558C45.6399 18.5548 45.2385 17.0559 44.4311 16.9077C43.6237 16.7595 42.7162 18.0183 42.404 19.7192C42.0919 21.4202 42.4934 22.9192 43.3007 23.0673C44.1081 23.2155 45.0157 21.9567 45.3278 20.2558Z" fill="#DD8F7B"/>
<path d="M33.2417 30.8804C39.1073 30.8804 43.8623 24.7787 43.8623 17.252C43.8623 9.72528 39.1073 3.62366 33.2417 3.62366C27.3761 3.62366 22.6211 9.72528 22.6211 17.252C22.6211 24.7787 27.3761 30.8804 33.2417 30.8804Z" fill="#F4A98A"/>
<path opacity="0.05" d="M43.8614 17.2521C43.8614 24.7768 39.1029 30.8787 33.2408 30.8787C31.6981 30.8787 30.2365 30.4591 28.9125 29.701C33.1685 29.1439 35.8765 24.5424 35.8765 18.9341C35.8765 12.9609 32.7101 8.10193 28.0539 8.10193C26.9114 8.10193 25.8254 8.3946 24.8398 8.9147C26.7845 5.70066 29.8257 3.62732 33.2425 3.62732C39.1047 3.62556 43.8614 9.7257 43.8614 17.2521Z" fill="white"/>
<path d="M43.8603 17.0212C43.8638 17.0124 43.8638 17.0053 43.8603 17C43.8638 16.9912 43.8638 16.9877 43.8603 16.9842V16.9806C43.8603 16.8396 43.8568 16.695 43.848 16.554V16.5416C43.8356 16.3142 43.8233 16.085 43.8056 15.8611C43.7933 15.6531 43.7721 15.4468 43.7475 15.244C43.7193 14.9954 43.6858 14.7504 43.6434 14.5053C43.6064 14.2814 43.5694 14.061 43.5236 13.8459C43.4812 13.6308 43.4319 13.414 43.3825 13.2042V13.2007C43.2838 12.774 43.1621 12.3544 43.0264 11.9489C42.9559 11.7461 42.8853 11.5434 42.8113 11.3442C42.7531 11.182 42.6914 11.0215 42.6244 10.8593C42.6244 10.8558 42.6244 10.8558 42.6244 10.8558C42.6085 10.8223 42.5962 10.7888 42.5786 10.7606C42.4217 10.3745 42.2436 10.0025 42.0479 9.64107V9.63225C41.9809 9.51237 41.9157 9.39601 41.8487 9.27965C41.8152 9.22146 41.7817 9.16329 41.7499 9.10511C41.7499 9.10158 41.7499 9.10158 41.7499 9.10158C41.6671 8.96053 41.5842 8.81949 41.4978 8.68374C41.4978 8.68374 41.4978 8.68021 41.4943 8.68021C41.4731 8.652 41.4573 8.6185 41.4361 8.58853C41.3691 8.48099 41.2986 8.37344 41.221 8.26942C41.1875 8.21124 41.147 8.15306 41.1099 8.10017C40.9936 7.93444 40.8772 7.77753 40.7538 7.61886C40.7044 7.55186 40.6498 7.48663 40.5916 7.41963C40.5881 7.41082 40.5793 7.40376 40.5705 7.39495C40.5123 7.31561 40.4506 7.24509 40.3836 7.17104C40.3712 7.15518 40.3554 7.13402 40.3342 7.11639C40.3183 7.08818 40.2919 7.06173 40.2637 7.03353C40.2637 7.03 40.2602 7.02471 40.2549 7.02118C40.172 6.92598 40.0891 6.8343 39.9975 6.74262C39.9358 6.6721 39.8652 6.60158 39.7982 6.53458C39.6872 6.42351 39.5708 6.31068 39.4544 6.20313C39.4333 6.18197 39.4086 6.16082 39.3874 6.14495V6.14142C39.3751 6.12908 39.3628 6.12027 39.3504 6.11321C39.2676 6.03388 39.1847 5.95983 39.0983 5.88931C38.9167 5.72711 38.7245 5.57901 38.5271 5.43797C38.4724 5.39213 38.4195 5.35158 38.3614 5.31279C38.3402 5.30045 38.3243 5.28458 38.3032 5.27577V5.27224C38.2291 5.22288 38.1533 5.16822 38.0793 5.12238C38.0458 5.0977 38.0123 5.07654 37.9752 5.05186C37.9417 5.0307 37.9083 5.00955 37.8712 4.99015C37.7725 4.92316 37.6685 4.86145 37.5645 4.80327C37.4393 4.72922 37.3123 4.66223 37.1836 4.59523C37.1678 4.58642 37.1554 4.57936 37.1378 4.57408V4.57055C37.0549 4.52824 36.9721 4.48769 36.8857 4.45066C36.8187 4.41716 36.7482 4.38367 36.6776 4.35546C36.6353 4.3343 36.5913 4.31843 36.5454 4.3008C36.4996 4.27612 36.4502 4.25496 36.4008 4.2391C36.3339 4.21089 36.2686 4.18444 36.1981 4.15976C36.1699 4.14742 36.1364 4.13508 36.1029 4.12626C36.0359 4.10158 35.9654 4.0769 35.9001 4.05574C35.8578 4.03987 35.8138 4.02753 35.7714 4.01343C35.7291 3.99756 35.6851 3.98522 35.6427 3.9764V3.97288C35.6216 3.96406 35.6057 3.96054 35.5846 3.95701C35.5264 3.94114 35.4647 3.92351 35.4065 3.90764C35.3977 3.90412 35.3942 3.90412 35.3853 3.90412C35.2989 3.87943 35.2108 3.85828 35.1244 3.84241C35.1032 3.8336 35.0821 3.83007 35.0627 3.82654C34.9622 3.80539 34.8599 3.79305 34.7595 3.77542C34.636 3.7525 34.5144 3.72958 34.3892 3.71195C34.3469 3.70666 34.3046 3.69608 34.2623 3.69079C34.1953 3.68197 34.13 3.67492 34.0631 3.66963C34.0542 3.66611 34.0507 3.66611 34.0472 3.66963C33.9608 3.65729 33.8726 3.64848 33.7898 3.64848C33.7651 3.64495 33.7439 3.63966 33.7228 3.63966H33.6893C33.6311 3.63613 33.5729 3.63085 33.5147 3.63614C33.4231 3.62732 33.3367 3.62732 33.245 3.62732C33.1374 3.62732 33.0299 3.63085 32.9224 3.63614C32.7108 3.64495 32.4992 3.66082 32.293 3.6855C32.1942 3.69784 32.0937 3.70666 31.995 3.72252C31.9915 3.72252 31.9862 3.72252 31.9827 3.72605C31.8874 3.73839 31.7922 3.75426 31.697 3.77189C31.6759 3.77542 31.6512 3.7807 31.63 3.78423C31.5507 3.8001 31.4767 3.81244 31.4026 3.8336C31.3568 3.84241 31.3162 3.84946 31.2739 3.8618C31.2157 3.87415 31.1628 3.88649 31.1082 3.90412C31.0923 3.90764 31.0747 3.91293 31.0588 3.91646C31.043 3.91998 31.0218 3.9288 31.0042 3.93233C30.9248 3.95701 30.8473 3.97817 30.7644 4.00285C30.715 4.01872 30.6657 4.03635 30.6145 4.05221C30.5652 4.06808 30.5158 4.08571 30.4647 4.10158C30.269 4.16857 30.075 4.24262 29.8846 4.32549C29.7894 4.3678 29.6942 4.40835 29.599 4.45419H29.5955C29.4051 4.54587 29.2217 4.64107 29.0366 4.7398C28.9449 4.78917 28.855 4.84382 28.7633 4.89671C28.6717 4.95489 28.5853 5.00779 28.4936 5.06597C28.4689 5.08183 28.4389 5.09946 28.4142 5.11533C28.3719 5.14354 28.3314 5.16999 28.2944 5.19819C28.2697 5.21054 28.2485 5.2264 28.2274 5.24403C28.141 5.30221 28.0528 5.36392 27.9664 5.43092C27.9629 5.42739 27.9629 5.43092 27.9629 5.43092C27.8765 5.49262 27.7884 5.55962 27.7055 5.62661C27.6226 5.69361 27.5398 5.75884 27.4569 5.82936C27.3741 5.89989 27.2912 5.97041 27.2083 6.04446C27.1713 6.07795 27.1378 6.10616 27.1008 6.13966C27.0549 6.18197 27.0091 6.22252 26.9685 6.26484C26.8857 6.33888 26.8064 6.41822 26.7288 6.49756C26.6494 6.5769 26.5754 6.65447 26.4961 6.73381C26.4961 6.73381 26.4925 6.73381 26.4925 6.73733C26.4767 6.7532 26.4643 6.77083 26.4467 6.7867C26.3145 6.93127 26.1822 7.08113 26.0482 7.23451C26.0059 7.28388 25.9654 7.33324 25.9231 7.38437L25.9195 7.3879C25.8825 7.43374 25.8455 7.47958 25.812 7.52541C25.7873 7.55362 25.7626 7.5836 25.7379 7.61709C25.6304 7.75461 25.5229 7.89918 25.4224 8.04375C25.3518 8.13896 25.2848 8.23416 25.2231 8.32936C25.2231 8.32936 25.2231 8.32936 25.2231 8.33289C25.1561 8.42809 25.0944 8.5233 25.0327 8.6185C25.0239 8.63084 25.0116 8.64671 25.008 8.66082C24.9587 8.73134 24.9164 8.80186 24.8705 8.87591C24.8617 8.88825 24.8582 8.90059 24.8494 8.91293C24.8458 8.91293 24.8458 8.91646 24.8458 8.91646C24.7965 8.9958 24.7506 9.07866 24.7048 9.16152C24.6255 9.29375 24.5514 9.42598 24.4809 9.55997C24.4597 9.59699 24.4386 9.63402 24.4227 9.67104C24.3434 9.81561 24.2729 9.96195 24.2023 10.11C23.9573 10.6196 23.7387 11.1502 23.5465 11.7056C23.4971 11.8431 23.4513 11.9842 23.4054 12.1234C23.2397 12.6453 23.0987 13.1848 22.9823 13.7402L22.9206 14.0628C22.9047 14.1492 22.8871 14.2409 22.8712 14.3325C22.8554 14.4401 22.8342 14.5476 22.8219 14.6552C22.7937 14.8297 22.7725 14.999 22.7513 15.1735C22.7302 15.3304 22.7143 15.4891 22.702 15.6495C22.6932 15.7289 22.6861 15.8064 22.6808 15.8893C22.6526 16.2631 22.635 16.6404 22.6315 17.0212C22.6279 17.0952 22.6279 17.171 22.6279 17.2451C22.6279 17.4567 22.6315 17.6682 22.6403 17.8745C22.6438 18.0825 22.6561 18.2888 22.6738 18.4969C22.6826 18.6414 22.6949 18.7825 22.7108 18.9235C22.7196 19.0222 22.7267 19.1227 22.7443 19.2215C22.7602 19.3872 22.7813 19.5529 22.806 19.7151V19.7186C22.8272 19.8562 22.8483 19.9919 22.8677 20.1241C22.8924 20.2617 22.9135 20.3974 22.9418 20.5296C22.9541 20.6125 22.97 20.6989 22.9911 20.7782C23.0193 20.9316 23.0528 21.085 23.0898 21.2349C23.1445 21.4711 23.2062 21.7038 23.2714 21.9313C23.3173 22.097 23.3666 22.2592 23.4213 22.4196C23.4301 22.4408 23.4336 22.4655 23.4425 22.4902C23.4795 22.6065 23.5218 22.7229 23.5623 22.8392C23.5659 22.848 23.5659 22.8551 23.5712 22.8639C23.5747 22.8727 23.5747 22.8798 23.58 22.8886C23.6258 23.0138 23.6664 23.1337 23.7175 23.2571C23.7757 23.4193 23.8427 23.5797 23.9079 23.7384C23.9908 23.9341 24.0772 24.1245 24.1653 24.3096C24.2323 24.4542 24.3028 24.5952 24.3733 24.7327C24.4227 24.828 24.4721 24.9284 24.5267 25.0236C24.6925 25.3304 24.867 25.6284 25.0539 25.9157C25.1614 26.085 25.2743 26.2507 25.3853 26.4129C25.5017 26.5698 25.6181 26.7285 25.7379 26.8819V26.8854C25.7997 26.9595 25.8631 27.0388 25.9195 27.1129C25.9812 27.1834 26.0394 27.2539 26.0976 27.3244C26.1011 27.328 26.1064 27.3332 26.1099 27.3403C26.1717 27.4108 26.2351 27.4813 26.2968 27.5483C26.4255 27.6929 26.5578 27.8304 26.69 27.9662C26.7023 27.975 26.7111 27.9873 26.7235 27.9997C26.7394 28.0208 26.757 28.0367 26.7729 28.049C26.8222 28.0949 26.8716 28.1442 26.9227 28.1936C26.9597 28.2306 26.9968 28.2677 27.0391 28.3012C27.0514 28.3135 27.0673 28.3258 27.0849 28.3435C27.0884 28.3523 27.0937 28.3558 27.1008 28.3593C27.1713 28.4263 27.2383 28.488 27.3088 28.5462C27.3247 28.5621 27.3423 28.5744 27.3547 28.5832C27.4128 28.6326 27.4657 28.682 27.5239 28.7278C27.5662 28.7648 27.6103 28.7983 27.6526 28.8318C27.6808 28.8565 27.7108 28.8777 27.739 28.9024C27.8889 29.0134 28.0334 29.1263 28.1868 29.2303C28.2291 29.2585 28.2732 29.2885 28.3155 29.3167H28.319C28.3525 29.3413 28.3808 29.3625 28.4142 29.3837C28.4883 29.433 28.5676 29.4824 28.6417 29.5335L28.8779 29.671C28.8903 29.6799 28.9026 29.6869 28.915 29.6922C28.9432 29.7134 28.9731 29.7292 29.0013 29.7469C29.0384 29.768 29.0754 29.7892 29.1124 29.8086H29.1159C29.1283 29.8121 29.1371 29.8209 29.1494 29.8244C29.1917 29.8491 29.2358 29.8703 29.2781 29.8914C29.2905 29.9002 29.3028 29.9073 29.3152 29.9126C29.3152 29.9161 29.3187 29.9161 29.324 29.9161C29.3328 29.9196 29.3398 29.9284 29.3522 29.9284C29.3733 29.9408 29.3945 29.9531 29.4139 29.9619C29.4968 30.0078 29.5831 30.0483 29.6713 30.0818C29.7577 30.1241 29.8458 30.1612 29.9322 30.1982C29.9816 30.2193 30.0362 30.2405 30.0856 30.2599C30.2108 30.3146 30.3307 30.3586 30.4541 30.4009C30.4541 30.4009 30.4576 30.4045 30.4629 30.4009C30.4841 30.4098 30.5052 30.4168 30.5299 30.4256C30.5511 30.4344 30.5722 30.4415 30.5916 30.4468C30.6657 30.4715 30.7362 30.4961 30.8155 30.5173C30.8279 30.5208 30.8402 30.5208 30.849 30.5261C30.8984 30.542 30.9477 30.5543 30.9936 30.5684C31.0482 30.5843 31.1011 30.5966 31.1593 30.6107C31.2298 30.6319 31.3039 30.6478 31.3797 30.6654C31.4079 30.6742 31.4414 30.6777 31.4749 30.6866C31.5701 30.7077 31.6706 30.7236 31.7693 30.7447C31.7975 30.7483 31.831 30.7571 31.8557 30.7606C31.8592 30.7606 31.8592 30.7606 31.8645 30.7606C32.0303 30.7853 32.1925 30.81 32.3582 30.8276C32.367 30.8311 32.3741 30.8311 32.3829 30.8311C32.5274 30.847 32.6685 30.8593 32.8148 30.8646C32.8307 30.8681 32.843 30.8681 32.8607 30.8681H32.91C32.9435 30.8681 32.977 30.8717 33.0087 30.8717C33.0881 30.8752 33.1657 30.8805 33.245 30.8805C33.3279 30.8805 33.4072 30.8805 33.4848 30.8717C33.5095 30.8752 33.5341 30.8752 33.5588 30.8717C33.6329 30.8681 33.7122 30.8629 33.7863 30.8593H33.7898C33.8815 30.8558 33.9678 30.8505 34.0595 30.8346C34.2129 30.8223 34.3628 30.8011 34.5109 30.78C34.5532 30.7765 34.5937 30.7712 34.636 30.7588C34.7101 30.7465 34.7859 30.7306 34.8599 30.7165C34.9587 30.7007 35.0627 30.6795 35.1632 30.6495C35.2337 30.6337 35.3078 30.616 35.3836 30.5949C35.47 30.579 35.5581 30.5526 35.641 30.5244C36.1628 30.371 36.6724 30.1682 37.1625 29.9196C37.166 29.9196 37.166 29.9161 37.1713 29.9161C37.1925 29.9073 37.2083 29.8949 37.2295 29.8826C37.2788 29.8579 37.3282 29.8332 37.3793 29.8033C37.4499 29.7662 37.5204 29.7292 37.5909 29.6834C37.6156 29.671 37.6403 29.6587 37.665 29.6411C37.7267 29.6076 37.7848 29.5705 37.8465 29.5335C37.8712 29.5177 37.8924 29.5053 37.9171 29.4877C37.9717 29.4542 38.0246 29.4207 38.0793 29.3837C38.0881 29.3801 38.1004 29.3713 38.1128 29.359C38.1798 29.3167 38.2415 29.2761 38.3032 29.2268C38.3825 29.1774 38.4566 29.128 38.5306 29.0646C38.5888 29.0222 38.647 28.9782 38.6999 28.9358C38.7369 28.9147 38.7704 28.8865 38.8039 28.8565C38.8585 28.8142 38.9114 28.7736 38.9661 28.7278C39.0366 28.6696 39.1107 28.6079 39.1812 28.5462C39.3222 28.4263 39.4633 28.2976 39.5955 28.1689C39.629 28.1354 39.6625 28.1019 39.6942 28.0702C39.7066 28.0579 39.7189 28.049 39.7277 28.0367L39.7982 27.9662C39.8317 27.9327 39.8652 27.8992 39.897 27.8674C39.9305 27.8339 39.964 27.7969 39.9957 27.7634V27.7599C40.0821 27.6682 40.165 27.5783 40.2478 27.4813C40.3395 27.3826 40.4259 27.2786 40.5123 27.1746C40.5916 27.0794 40.6692 26.9789 40.7485 26.8801C40.8155 26.7973 40.8772 26.7144 40.9389 26.628C40.9513 26.6122 40.9636 26.5998 40.9724 26.5822C41.0183 26.524 41.0588 26.4658 41.1011 26.4129V26.4094C41.1346 26.3636 41.1628 26.323 41.1875 26.2807C41.1875 26.2772 41.191 26.2772 41.191 26.2719C41.1946 26.2684 41.1999 26.2595 41.2034 26.256C41.2827 26.1449 41.3568 26.0321 41.4308 25.921C41.4308 25.921 41.4308 25.921 41.4308 25.9175C41.5102 25.7923 41.5877 25.6689 41.6635 25.5402C41.6918 25.4979 41.7182 25.4574 41.7429 25.4115C41.7464 25.408 41.7464 25.4027 41.7464 25.3992C41.8011 25.3163 41.8504 25.2335 41.891 25.1471C41.9456 25.0554 41.995 24.9655 42.0408 24.8738C42.0444 24.8703 42.0444 24.8703 42.0444 24.865C42.136 24.6869 42.2312 24.5 42.3176 24.3131C42.33 24.292 42.3423 24.2673 42.3511 24.2461C42.4058 24.1298 42.4587 24.0134 42.5045 23.8971C42.5327 23.8301 42.5627 23.7684 42.5909 23.6978C42.6244 23.6185 42.6579 23.5356 42.6896 23.4581C42.7725 23.2624 42.843 23.0684 42.91 22.8692H42.9135V22.8657C42.9347 22.8075 42.9559 22.7493 42.9717 22.6876C43.0052 22.6047 43.0334 22.5219 43.0581 22.4355C43.1128 22.2698 43.1621 22.104 43.208 21.933C43.2697 21.725 43.3243 21.5187 43.3772 21.3071C43.3772 21.2983 43.3807 21.2948 43.3807 21.286C43.4301 21.078 43.476 20.8681 43.5183 20.6513C43.5641 20.4362 43.6011 20.2158 43.6382 19.9919C43.7122 19.5476 43.7669 19.0963 43.8004 18.6397C43.8162 18.4122 43.8286 18.1795 43.8427 17.9468C43.855 17.7141 43.8585 17.4778 43.8585 17.2416C43.8656 17.1746 43.8656 17.0952 43.8603 17.0212ZM42.7672 22.7088C41.6812 25.8382 39.6625 28.317 37.1625 29.5653C36.0218 30.1365 34.7788 30.4521 33.4812 30.4521C32.1625 30.4521 30.8984 30.1294 29.7383 29.5353C29.6008 29.4648 29.4597 29.3907 29.324 29.3114C26.898 27.915 24.9745 25.3269 24.0084 22.1305C23.9626 21.993 23.922 21.8572 23.8885 21.7162V21.7126C23.5394 20.4574 23.3455 19.1086 23.3208 17.7123C23.3173 17.6136 23.3173 17.5095 23.3173 17.4091C23.3173 13.9024 24.3998 10.7218 26.1575 8.38049V8.37697C26.5066 7.90447 26.8874 7.469 27.2929 7.07055C29.0049 5.37979 31.1575 4.37133 33.483 4.37133C36.4396 4.37133 39.1054 5.99156 40.9618 8.58324C42.5415 10.78 43.5359 13.6784 43.6399 16.8696C43.6399 16.8731 43.6399 16.8731 43.6399 16.8731C43.6434 16.9718 43.6434 17.0688 43.6434 17.171C43.647 17.2504 43.647 17.328 43.647 17.4073C43.6452 19.2973 43.3296 21.0868 42.7672 22.7088Z" fill="#DD8F7B"/>
<path d="M48.2186 43.9711V61.665H18.2627V43.9711C18.2627 43.86 18.2627 43.7472 18.2715 43.6396C18.275 43.4404 18.2874 43.2465 18.3085 43.0508C18.3085 43.0173 18.3085 42.9891 18.3121 42.9556C18.3156 42.9133 18.3209 42.8727 18.3279 42.8304C18.3367 42.7193 18.3491 42.6065 18.365 42.4989C18.3808 42.3949 18.3984 42.2909 18.4196 42.1886C18.4284 42.134 18.4355 42.0776 18.4478 42.0229C18.4637 41.9365 18.4813 41.8537 18.5025 41.7655C18.5236 41.6615 18.5483 41.5575 18.573 41.4588C18.5818 41.4253 18.5889 41.3918 18.6012 41.36C18.6294 41.2313 18.6682 41.1079 18.7052 40.9863C18.714 40.9492 18.7264 40.9122 18.7387 40.8752C18.781 40.7377 18.8251 40.6107 18.8762 40.4767C18.8798 40.4609 18.885 40.4485 18.8921 40.4309C18.9468 40.281 19.0032 40.1329 19.0666 39.9866C19.1248 39.842 19.1918 39.701 19.2571 39.56C19.2659 39.5441 19.2729 39.5265 19.2817 39.5106C19.3487 39.3695 19.4228 39.2285 19.4968 39.0927C19.5762 38.9482 19.6537 38.8071 19.7419 38.6661C19.8283 38.525 19.9164 38.3875 20.0063 38.2518C20.3748 37.7088 20.7944 37.1992 21.2546 36.7391C21.8346 36.1626 22.4817 35.653 23.1816 35.2264C23.4637 35.0571 23.7528 34.8985 24.0525 34.7539C24.2024 34.6834 24.3505 34.6128 24.5039 34.5511C24.8106 34.4224 25.1262 34.3061 25.4453 34.2073C25.7433 34.1121 26.0554 34.0328 26.3657 33.9676C26.5614 33.9253 26.7553 33.8935 26.951 33.86C27.2454 33.8177 27.5434 33.786 27.8431 33.7683C28.0547 33.756 28.2697 33.7472 28.4848 33.7472H37.9912C38.1534 33.7472 38.3138 33.7507 38.476 33.7595C38.5712 33.7631 38.6664 33.7683 38.7616 33.7807C38.8445 33.7807 38.9309 33.7895 39.0137 33.8018C39.1548 33.8142 39.2994 33.8301 39.4369 33.8512C39.5991 33.8724 39.756 33.9006 39.9094 33.9305C40.0346 33.9517 40.1492 33.9764 40.2708 34.0099C40.403 34.0346 40.5353 34.0681 40.6693 34.1051C40.7556 34.1262 40.8438 34.1509 40.9302 34.1791C41.0042 34.2003 41.08 34.225 41.1506 34.2497C41.2422 34.2743 41.3322 34.3078 41.4238 34.3413C41.482 34.3572 41.5314 34.3784 41.586 34.403C41.6689 34.4277 41.7518 34.4612 41.8346 34.5018C41.9386 34.5388 42.0427 34.5846 42.1449 34.6305C42.1537 34.6305 42.1573 34.634 42.1608 34.6393C42.2983 34.701 42.4393 34.7645 42.5716 34.835C42.6915 34.8932 42.8114 34.9549 42.9277 35.0219C42.9859 35.0501 43.0441 35.0836 43.1023 35.1206C43.1975 35.1753 43.2891 35.2281 43.3808 35.2863C43.6417 35.4485 43.8956 35.6178 44.1389 35.8082C44.756 36.2648 45.3166 36.7955 45.805 37.3844C45.9037 37.5007 46.0007 37.6206 46.0906 37.7405C46.1858 37.8604 46.2775 37.9856 46.3639 38.109C46.4503 38.2377 46.5384 38.3611 46.6213 38.4951C46.7905 38.7525 46.9439 39.0169 47.0815 39.2955C47.152 39.433 47.219 39.5741 47.2842 39.7133C47.7408 40.7006 48.0423 41.769 48.1587 42.8939V42.8974C48.1622 42.9062 48.1622 42.9186 48.1622 42.9256C48.1622 42.9256 48.1622 42.9256 48.1622 42.9291C48.1869 43.1566 48.2045 43.3928 48.208 43.6291C48.2186 43.7384 48.2186 43.8547 48.2186 43.9711Z" fill="#252550"/>
<path opacity="0.05" d="M46.6668 44.0329V61.6651H39.4119V45.3763C39.4119 39.7345 34.8315 35.1577 29.1844 35.1577H23.3135C24.8103 34.2991 26.5469 33.8054 28.3999 33.8054H36.4341C36.6791 33.8054 36.9189 33.8142 37.1587 33.8336C42.3033 34.1898 46.4041 38.3523 46.6527 43.5304V43.5463C46.6562 43.5709 46.6562 43.6009 46.6562 43.6256C46.6633 43.7596 46.6668 43.8971 46.6668 44.0329Z" fill="white"/>
<path d="M28.1869 11.8306C28.1869 11.8306 26.6478 14.6903 25.3273 15.5701C24.0067 16.4498 24.9976 21.0549 24.3364 21.7777C23.677 22.5006 21.3657 17.9907 22.0268 11.8306C22.6862 5.67055 25.4366 3.14058 27.6368 1.93113C29.8371 0.721681 36.877 0.391991 40.0663 1.93113C43.2557 3.47027 44.5762 10.2915 44.5762 12.2714C44.5762 14.2513 44.1125 17.594 43.6718 16.9329C43.231 16.2735 42.7056 10.8416 41.3868 10.4008C40.0663 9.96005 38.9662 12.3807 36.1065 12.9308C33.2451 13.4809 30.2761 11.5009 28.1869 11.8306Z" fill="#252550"/>
<path opacity="0.1" d="M43.8496 15.2352C43.7949 15.2722 43.7402 15.2528 43.6856 15.1717C43.2466 14.5053 42.7177 9.08039 41.4024 8.63258C40.0784 8.19358 38.9818 10.6142 36.1239 11.1625C35.5297 11.2807 34.9374 11.2807 34.352 11.2172C32.9821 8.6696 30.7713 7.02468 28.0685 7.02468C26.9278 7.02468 25.84 7.31734 24.8545 7.83744C26.7991 4.62341 29.8404 2.55007 33.2572 2.55007C35.1278 2.55007 38.0491 2.53244 39.5759 3.622C42.6313 5.80465 43.5992 10.5067 43.8496 15.2352Z" fill="white"/>
</svg>
