<svg width="68" height="47" viewBox="0 0 68 47" fill="none" xmlns="http://www.w3.org/2000/svg">
<path d="M63.818 46.5438H4.74356C2.59969 46.5438 0.861328 44.8054 0.861328 42.6615V5.65518C0.861328 3.51131 2.59969 1.77295 4.74356 1.77295H63.818C65.9618 1.77295 67.7002 3.51131 67.7002 5.65518V42.6615C67.7002 44.8054 65.9618 46.5438 63.818 46.5438Z" fill="#EAC080"/>
<path d="M61.5818 43.1788H4.88223C2.73836 43.1788 1 41.4404 1 39.2966V3.88223C1 1.73836 2.73836 0 4.88223 0H61.5818C63.7257 0 65.464 1.73836 65.464 3.88223V39.2966C65.464 41.4404 63.7257 43.1788 61.5818 43.1788Z" fill="#E83B3C"/>
<path d="M61.4433 44.2008L48.4055 44.2431L35.3678 44.3401C26.676 44.4106 17.9842 44.4194 9.29233 44.393L6.03245 44.3771L5.21793 44.3718L4.81066 44.37C4.67491 44.3683 4.52681 44.3559 4.38753 44.3489C3.81983 44.2978 3.26271 44.1267 2.76729 43.8429C1.7747 43.2822 1.03951 42.2949 0.799731 41.1842C0.764471 41.0467 0.753892 40.9057 0.730973 40.7646C0.711579 40.6236 0.715105 40.4825 0.70629 40.3415C0.702764 40.0665 0.708054 39.7967 0.708054 39.5252L0.716868 37.8961L0.755655 31.3764L0.773285 24.8566C0.790916 20.5107 0.780337 16.1648 0.771522 11.8189L0.750366 5.29917L0.748603 4.89191L0.766233 4.47407L0.827941 4.05799C0.863202 3.92224 0.893173 3.78472 0.933723 3.65072C1.10298 3.11652 1.38859 2.61935 1.76059 2.2015C2.50283 1.35877 3.61355 0.847481 4.74367 0.849244C22.1273 0.768144 39.511 0.694097 56.8964 0.720543L60.1562 0.722307H60.9708H61.378C61.5138 0.722307 61.6654 0.734646 61.8082 0.741698C62.3865 0.791064 62.956 0.963843 63.462 1.24946C64.4775 1.81539 65.2338 2.82209 65.4859 3.9575C65.523 4.09854 65.5353 4.24311 65.56 4.38592C65.5794 4.52872 65.5794 4.67506 65.5864 4.81963C65.5899 5.09819 65.5847 5.36441 65.5847 5.63768L65.5776 7.26674C65.5547 11.6126 65.5423 15.9586 65.5 20.3045L65.3995 33.3422C65.3784 35.516 65.3801 37.6881 65.3713 39.8619L65.3696 40.2692L65.3484 40.68L65.2849 41.0873C65.2497 41.2195 65.2197 41.3535 65.1774 41.4839C65.0064 42.0058 64.7243 42.4906 64.3576 42.8961C63.6259 43.723 62.5399 44.2096 61.4433 44.2008ZM61.4433 44.1479C62.5258 44.1514 63.5907 43.6631 64.3029 42.8574C64.6608 42.4571 64.9359 41.9794 65.0981 41.4681C65.1368 41.3394 65.1668 41.2089 65.2003 41.0784L65.2603 40.68L65.2779 40.278L65.2761 39.8708C65.2673 37.6969 65.2691 35.5248 65.2479 33.351L65.151 20.3115C65.1086 15.9656 65.0963 11.6197 65.0734 7.27379L65.0663 5.64473C65.0646 5.37499 65.0663 5.09819 65.0593 4.83373C65.0487 4.70679 65.0505 4.57985 65.0328 4.45468C65.0099 4.3295 65.0011 4.20256 64.9676 4.08091C64.7472 3.09184 64.0861 2.21561 63.201 1.72195C62.7603 1.47336 62.2648 1.32351 61.7624 1.28119C61.6337 1.2759 61.5138 1.26532 61.378 1.26532H60.9708H60.1562L56.8964 1.26709C39.5127 1.29353 22.1291 1.21948 4.74367 1.13838C3.69465 1.12781 2.65446 1.59149 1.95276 2.37428C1.60015 2.76215 1.32865 3.22583 1.16468 3.72654C1.12413 3.85171 1.09592 3.98042 1.06066 4.10736L0.998955 4.49699L0.9778 4.89191L0.976036 5.3027L0.954879 11.8224C0.946064 16.1684 0.935487 20.5143 0.953117 24.8602L0.970747 31.3799L1.00953 37.8997L1.01835 39.5287C1.02188 39.8002 1.01835 40.0735 1.0254 40.3415C1.03598 40.472 1.03422 40.6024 1.05361 40.7311C1.07829 40.8581 1.08711 40.9903 1.12237 41.1155C1.35509 42.131 2.03739 43.0248 2.94536 43.5238C3.3967 43.7759 3.90446 43.9258 4.4175 43.9663C4.54797 43.9698 4.67138 43.9804 4.80714 43.9804L5.2144 43.9787L6.02893 43.9734L9.2888 43.9575C17.9806 43.931 26.6724 43.9399 35.3643 44.0104L48.402 44.1074L61.4433 44.1479Z" fill="#BE1622"/>
<path d="M62.5611 12.7091V32.4587C62.5611 37.4993 58.4744 41.5878 53.4373 41.5878H44.9218C49.9624 41.5878 54.0456 37.501 54.0456 32.4587V20.5317C54.0456 15.4947 49.9624 11.408 44.9218 11.408H12.755C7.71448 11.408 3.62598 15.4947 3.62598 20.5317V12.7091C3.62598 7.66854 7.71272 3.58533 12.755 3.58533H53.4356C58.4744 3.58356 62.5611 7.66678 62.5611 12.7091Z" fill="#E9444D"/>
<path d="M47.8693 22.4077L26.9948 10.3556C26.8678 10.2833 26.7109 10.3732 26.7109 10.5195V34.6239C26.7109 34.7702 26.8696 34.8619 26.9948 34.7879L47.8693 22.7357C47.9962 22.6634 47.9962 22.48 47.8693 22.4077Z" fill="#BE1823"/>
<path d="M46.2897 21.4768L26.7692 10.2057C26.6423 10.1334 26.4854 10.2233 26.4854 10.3696V32.9119C26.4854 33.0583 26.644 33.15 26.7692 33.0759L46.2914 21.8047C46.4166 21.7325 46.4166 21.5491 46.2897 21.4768Z" fill="white"/>
</svg>
